<svg width="160" height="183" viewBox="0 0 160 183" fill="none" xmlns="http://www.w3.org/2000/svg">
<path d="M153.951 93.4638C153.951 151.51 106.213 182.008 59.5793 182.008C12.9455 182.008 0.969674 175.122 0.969462 119.043C0.969273 68.868 -0.961536 0 45.6722 0C92.306 0 153.951 44.2723 153.951 93.4638Z" fill="#E6EEF0"/>
<path d="M110.97 159.93C112.038 160.827 111.42 162.57 110.029 162.583L64.8924 163.007C63.8497 163.017 63.1128 161.982 63.4618 160.998L73.9316 131.468C74.2805 130.483 75.5018 130.152 76.3026 130.825L110.97 159.93Z" fill="#475FCB"/>
<path d="M132.728 72.6929C133.86 71.9917 135.273 73.0176 134.97 74.3206L118.787 143.837C118.544 144.881 117.323 145.339 116.457 144.711L72.2358 112.602C71.3702 111.974 71.4162 110.663 72.3236 110.101L132.728 72.6929Z" fill="#475FCB"/>
<path d="M125.03 56.8966C126.007 57.4781 126.007 58.8931 125.03 59.4746L69.846 92.3162C68.8461 92.9113 67.5789 92.1908 67.5789 91.0272L67.5789 25.344C67.5789 24.1804 68.8461 23.4599 69.846 24.055L125.03 56.8966Z" fill="#475FCB"/>
<rect x="19.3173" y="22.9336" width="34.067" height="141.008" rx="1.5" fill="#475FCB"/>
</svg>
