<svg width="318" height="589" viewBox="0 0 318 589" fill="none" xmlns="http://www.w3.org/2000/svg">
<path d="M23.582 15.5435L20.502 10.1035H19.182V15.5435H16.382V1.58353H21.622C22.702 1.58353 23.622 1.77686 24.382 2.16353C25.142 2.53686 25.7086 3.0502 26.082 3.70353C26.4686 4.34353 26.662 5.06353 26.662 5.86353C26.662 6.78353 26.3953 7.61686 25.862 8.36353C25.3286 9.09686 24.5353 9.60353 23.482 9.88353L26.822 15.5435H23.582ZM19.182 8.00353H21.522C22.282 8.00353 22.8486 7.82353 23.222 7.46353C23.5953 7.0902 23.782 6.57686 23.782 5.92353C23.782 5.28353 23.5953 4.7902 23.222 4.44353C22.8486 4.08353 22.282 3.90353 21.522 3.90353H19.182V8.00353Z" fill="#746767"/>
<path d="M39.4945 9.76353C39.4945 10.1635 39.4678 10.5235 39.4145 10.8435H31.3145C31.3811 11.6435 31.6611 12.2702 32.1545 12.7235C32.6478 13.1769 33.2545 13.4035 33.9745 13.4035C35.0145 13.4035 35.7545 12.9569 36.1945 12.0635H39.2145C38.8945 13.1302 38.2811 14.0102 37.3745 14.7035C36.4678 15.3835 35.3545 15.7235 34.0345 15.7235C32.9678 15.7235 32.0078 15.4902 31.1545 15.0235C30.3145 14.5435 29.6545 13.8702 29.1745 13.0035C28.7078 12.1369 28.4745 11.1369 28.4745 10.0035C28.4745 8.85686 28.7078 7.8502 29.1745 6.98353C29.6411 6.11686 30.2945 5.4502 31.1345 4.98353C31.9745 4.51686 32.9411 4.28353 34.0345 4.28353C35.0878 4.28353 36.0278 4.5102 36.8545 4.96353C37.6945 5.41686 38.3411 6.06353 38.7945 6.90353C39.2611 7.7302 39.4945 8.68353 39.4945 9.76353ZM36.5945 8.96353C36.5811 8.24353 36.3211 7.6702 35.8145 7.24353C35.3078 6.80353 34.6878 6.58353 33.9545 6.58353C33.2611 6.58353 32.6745 6.79686 32.1945 7.22353C31.7278 7.63686 31.4411 8.21686 31.3345 8.96353H36.5945Z" fill="#746767"/>
<path d="M47.6782 4.30353C48.9982 4.30353 50.0649 4.72353 50.8782 5.56353C51.6915 6.3902 52.0982 7.5502 52.0982 9.04353V15.5435H49.2982V9.42353C49.2982 8.54353 49.0782 7.8702 48.6382 7.40353C48.1982 6.92353 47.5982 6.68353 46.8382 6.68353C46.0649 6.68353 45.4515 6.92353 44.9982 7.40353C44.5582 7.8702 44.3382 8.54353 44.3382 9.42353V15.5435H41.5382V4.46353H44.3382V5.84353C44.7115 5.36353 45.1849 4.9902 45.7582 4.72353C46.3449 4.44353 46.9849 4.30353 47.6782 4.30353Z" fill="#746767"/>
<path d="M58.0209 6.76353V12.1235C58.0209 12.4969 58.1075 12.7702 58.2809 12.9435C58.4675 13.1035 58.7742 13.1835 59.2009 13.1835H60.5009V15.5435H58.7409C56.3809 15.5435 55.2009 14.3969 55.2009 12.1035V6.76353H53.8809V4.46353H55.2009V1.72353H58.0209V4.46353H60.5009V6.76353H58.0209Z" fill="#746767"/>
<path d="M72.2004 15.7235C71.1337 15.7235 70.1737 15.4902 69.3204 15.0235C68.4671 14.5435 67.7937 13.8702 67.3004 13.0035C66.8204 12.1369 66.5804 11.1369 66.5804 10.0035C66.5804 8.8702 66.8271 7.8702 67.3204 7.00353C67.8271 6.13686 68.5137 5.4702 69.3804 5.00353C70.2471 4.52353 71.2137 4.28353 72.2804 4.28353C73.3471 4.28353 74.3137 4.52353 75.1804 5.00353C76.0471 5.4702 76.7271 6.13686 77.2204 7.00353C77.7271 7.8702 77.9804 8.8702 77.9804 10.0035C77.9804 11.1369 77.7204 12.1369 77.2004 13.0035C76.6937 13.8702 76.0004 14.5435 75.1204 15.0235C74.2537 15.4902 73.2804 15.7235 72.2004 15.7235ZM72.2004 13.2835C72.7071 13.2835 73.1804 13.1635 73.6204 12.9235C74.0737 12.6702 74.4337 12.2969 74.7004 11.8035C74.9671 11.3102 75.1004 10.7102 75.1004 10.0035C75.1004 8.9502 74.8204 8.14353 74.2604 7.58353C73.7137 7.0102 73.0404 6.72353 72.2404 6.72353C71.4404 6.72353 70.7671 7.0102 70.2204 7.58353C69.6871 8.14353 69.4204 8.9502 69.4204 10.0035C69.4204 11.0569 69.6804 11.8702 70.2004 12.4435C70.7337 13.0035 71.4004 13.2835 72.2004 13.2835Z" fill="#746767"/>
<path d="M90.4943 4.46353V15.5435H87.6743V14.1435C87.3143 14.6235 86.841 15.0035 86.2543 15.2835C85.681 15.5502 85.0543 15.6835 84.3743 15.6835C83.5076 15.6835 82.741 15.5035 82.0743 15.1435C81.4076 14.7702 80.881 14.2302 80.4943 13.5235C80.121 12.8035 79.9343 11.9502 79.9343 10.9635V4.46353H82.7343V10.5635C82.7343 11.4435 82.9543 12.1235 83.3943 12.6035C83.8343 13.0702 84.4343 13.3035 85.1943 13.3035C85.9676 13.3035 86.5743 13.0702 87.0143 12.6035C87.4543 12.1235 87.6743 11.4435 87.6743 10.5635V4.46353H90.4943Z" fill="#746767"/>
<path d="M96.517 6.76353V12.1235C96.517 12.4969 96.6036 12.7702 96.777 12.9435C96.9636 13.1035 97.2703 13.1835 97.697 13.1835H98.997V15.5435H97.237C94.877 15.5435 93.697 14.3969 93.697 12.1035V6.76353H92.377V4.46353H93.697V1.72353H96.517V4.46353H98.997V6.76353H96.517Z" fill="#746767"/>
<path d="M116.376 4.46353L109.516 20.7835H106.536L108.936 15.2635L104.496 4.46353H107.636L110.496 12.2035L113.396 4.46353H116.376Z" fill="#746767"/>
<path d="M122.806 15.7235C121.739 15.7235 120.779 15.4902 119.926 15.0235C119.073 14.5435 118.399 13.8702 117.906 13.0035C117.426 12.1369 117.186 11.1369 117.186 10.0035C117.186 8.8702 117.433 7.8702 117.926 7.00353C118.433 6.13686 119.119 5.4702 119.986 5.00353C120.853 4.52353 121.819 4.28353 122.886 4.28353C123.953 4.28353 124.919 4.52353 125.786 5.00353C126.653 5.4702 127.333 6.13686 127.826 7.00353C128.333 7.8702 128.586 8.8702 128.586 10.0035C128.586 11.1369 128.326 12.1369 127.806 13.0035C127.299 13.8702 126.606 14.5435 125.726 15.0235C124.859 15.4902 123.886 15.7235 122.806 15.7235ZM122.806 13.2835C123.313 13.2835 123.786 13.1635 124.226 12.9235C124.679 12.6702 125.039 12.2969 125.306 11.8035C125.573 11.3102 125.706 10.7102 125.706 10.0035C125.706 8.9502 125.426 8.14353 124.866 7.58353C124.319 7.0102 123.646 6.72353 122.846 6.72353C122.046 6.72353 121.373 7.0102 120.826 7.58353C120.293 8.14353 120.026 8.9502 120.026 10.0035C120.026 11.0569 120.286 11.8702 120.806 12.4435C121.339 13.0035 122.006 13.2835 122.806 13.2835Z" fill="#746767"/>
<path d="M141.1 4.46353V15.5435H138.28V14.1435C137.92 14.6235 137.446 15.0035 136.86 15.2835C136.286 15.5502 135.66 15.6835 134.98 15.6835C134.113 15.6835 133.346 15.5035 132.68 15.1435C132.013 14.7702 131.486 14.2302 131.1 13.5235C130.726 12.8035 130.54 11.9502 130.54 10.9635V4.46353H133.34V10.5635C133.34 11.4435 133.56 12.1235 134 12.6035C134.44 13.0702 135.04 13.3035 135.8 13.3035C136.573 13.3035 137.18 13.0702 137.62 12.6035C138.06 12.1235 138.28 11.4435 138.28 10.5635V4.46353H141.1Z" fill="#746767"/>
<path d="M146.662 6.18353C147.022 5.59686 147.489 5.13686 148.062 4.80353C148.649 4.4702 149.316 4.30353 150.062 4.30353V7.24353H149.322C148.442 7.24353 147.776 7.4502 147.322 7.86353C146.882 8.27686 146.662 8.99686 146.662 10.0235V15.5435H143.862V4.46353H146.662V6.18353Z" fill="#746767"/>
<path d="M160.954 15.7235C160.047 15.7235 159.234 15.5635 158.514 15.2435C157.794 14.9102 157.221 14.4635 156.794 13.9035C156.381 13.3435 156.154 12.7235 156.114 12.0435H158.934C158.987 12.4702 159.194 12.8235 159.554 13.1035C159.927 13.3835 160.387 13.5235 160.934 13.5235C161.467 13.5235 161.881 13.4169 162.174 13.2035C162.481 12.9902 162.634 12.7169 162.634 12.3835C162.634 12.0235 162.447 11.7569 162.074 11.5835C161.714 11.3969 161.134 11.1969 160.334 10.9835C159.507 10.7835 158.827 10.5769 158.294 10.3635C157.774 10.1502 157.321 9.82353 156.934 9.38353C156.561 8.94353 156.374 8.3502 156.374 7.60353C156.374 6.9902 156.547 6.4302 156.894 5.92353C157.254 5.41686 157.761 5.01686 158.414 4.72353C159.081 4.4302 159.861 4.28353 160.754 4.28353C162.074 4.28353 163.127 4.61686 163.914 5.28353C164.701 5.93686 165.134 6.82353 165.214 7.94353H162.534C162.494 7.50353 162.307 7.15686 161.974 6.90353C161.654 6.63686 161.221 6.50353 160.674 6.50353C160.167 6.50353 159.774 6.59686 159.494 6.78353C159.227 6.9702 159.094 7.2302 159.094 7.56353C159.094 7.93686 159.281 8.22353 159.654 8.42353C160.027 8.6102 160.607 8.80353 161.394 9.00353C162.194 9.20353 162.854 9.4102 163.374 9.62353C163.894 9.83686 164.341 10.1702 164.714 10.6235C165.101 11.0635 165.301 11.6502 165.314 12.3835C165.314 13.0235 165.134 13.5969 164.774 14.1035C164.427 14.6102 163.921 15.0102 163.254 15.3035C162.601 15.5835 161.834 15.7235 160.954 15.7235Z" fill="#746767"/>
<path d="M170.872 6.76353V12.1235C170.872 12.4969 170.959 12.7702 171.132 12.9435C171.319 13.1035 171.626 13.1835 172.052 13.1835H173.352V15.5435H171.592C169.232 15.5435 168.052 14.3969 168.052 12.1035V6.76353H166.732V4.46353H168.052V1.72353H170.872V4.46353H173.352V6.76353H170.872Z" fill="#746767"/>
<path d="M185.826 4.46353V15.5435H183.006V14.1435C182.646 14.6235 182.173 15.0035 181.586 15.2835C181.013 15.5502 180.386 15.6835 179.706 15.6835C178.84 15.6835 178.073 15.5035 177.406 15.1435C176.74 14.7702 176.213 14.2302 175.826 13.5235C175.453 12.8035 175.266 11.9502 175.266 10.9635V4.46353H178.066V10.5635C178.066 11.4435 178.286 12.1235 178.726 12.6035C179.166 13.0702 179.766 13.3035 180.526 13.3035C181.3 13.3035 181.906 13.0702 182.346 12.6035C182.786 12.1235 183.006 11.4435 183.006 10.5635V4.46353H185.826Z" fill="#746767"/>
<path d="M193.669 6.76353H191.729V15.5435H188.889V6.76353H187.629V4.46353H188.889V3.90353C188.889 2.54353 189.276 1.54353 190.049 0.903529C190.822 0.263529 191.989 -0.0364708 193.549 0.00352946V2.36353C192.869 2.3502 192.396 2.46353 192.129 2.70353C191.862 2.94353 191.729 3.37686 191.729 4.00353V4.46353H193.669V6.76353Z" fill="#746767"/>
<path d="M200.564 6.76353H198.624V15.5435H195.784V6.76353H194.524V4.46353H195.784V3.90353C195.784 2.54353 196.17 1.54353 196.944 0.903529C197.717 0.263529 198.884 -0.0364708 200.444 0.00352946V2.36353C199.764 2.3502 199.29 2.46353 199.024 2.70353C198.757 2.94353 198.624 3.37686 198.624 4.00353V4.46353H200.564V6.76353Z" fill="#746767"/>
<path d="M134.37 414.584V416.844H130.65V428.544H127.85V416.844H124.13V414.584H134.37Z" fill="#746767"/>
<path d="M135.693 422.964C135.693 421.844 135.913 420.85 136.353 419.984C136.807 419.117 137.413 418.45 138.173 417.984C138.947 417.517 139.807 417.284 140.753 417.284C141.58 417.284 142.3 417.45 142.913 417.784C143.54 418.117 144.04 418.537 144.413 419.044V417.464H147.233V428.544H144.413V426.924C144.053 427.444 143.553 427.877 142.913 428.224C142.287 428.557 141.56 428.724 140.733 428.724C139.8 428.724 138.947 428.484 138.173 428.004C137.413 427.524 136.807 426.85 136.353 425.984C135.913 425.104 135.693 424.097 135.693 422.964ZM144.413 423.004C144.413 422.324 144.28 421.744 144.013 421.264C143.747 420.77 143.387 420.397 142.933 420.144C142.48 419.877 141.993 419.744 141.473 419.744C140.953 419.744 140.473 419.87 140.033 420.124C139.593 420.377 139.233 420.75 138.953 421.244C138.687 421.724 138.553 422.297 138.553 422.964C138.553 423.63 138.687 424.217 138.953 424.724C139.233 425.217 139.593 425.597 140.033 425.864C140.487 426.13 140.967 426.264 141.473 426.264C141.993 426.264 142.48 426.137 142.933 425.884C143.387 425.617 143.747 425.244 144.013 424.764C144.28 424.27 144.413 423.684 144.413 423.004Z" fill="#746767"/>
<path d="M156.528 428.544L152.768 423.824V428.544H149.968V413.744H152.768V422.164L156.488 417.464H160.128L155.248 423.024L160.168 428.544H156.528Z" fill="#746767"/>
<path d="M171.948 422.764C171.948 423.164 171.921 423.524 171.868 423.844H163.768C163.834 424.644 164.114 425.27 164.608 425.724C165.101 426.177 165.708 426.404 166.428 426.404C167.468 426.404 168.208 425.957 168.648 425.064H171.668C171.348 426.13 170.734 427.01 169.828 427.704C168.921 428.384 167.808 428.724 166.488 428.724C165.421 428.724 164.461 428.49 163.608 428.024C162.768 427.544 162.108 426.87 161.628 426.004C161.161 425.137 160.928 424.137 160.928 423.004C160.928 421.857 161.161 420.85 161.628 419.984C162.094 419.117 162.748 418.45 163.588 417.984C164.428 417.517 165.394 417.284 166.488 417.284C167.541 417.284 168.481 417.51 169.308 417.964C170.148 418.417 170.794 419.064 171.248 419.904C171.714 420.73 171.948 421.684 171.948 422.764ZM169.048 421.964C169.034 421.244 168.774 420.67 168.268 420.244C167.761 419.804 167.141 419.584 166.408 419.584C165.714 419.584 165.128 419.797 164.648 420.224C164.181 420.637 163.894 421.217 163.788 421.964H169.048Z" fill="#746767"/>
<path d="M182.017 419.764V425.124C182.017 425.497 182.104 425.77 182.277 425.944C182.464 426.104 182.77 426.184 183.197 426.184H184.497V428.544H182.737C180.377 428.544 179.197 427.397 179.197 425.104V419.764H177.877V417.464H179.197V414.724H182.017V417.464H184.497V419.764H182.017Z" fill="#746767"/>
<path d="M192.751 417.304C193.591 417.304 194.338 417.49 194.991 417.864C195.644 418.224 196.151 418.764 196.511 419.484C196.884 420.19 197.071 421.044 197.071 422.044V428.544H194.271V422.424C194.271 421.544 194.051 420.87 193.611 420.404C193.171 419.924 192.571 419.684 191.811 419.684C191.038 419.684 190.424 419.924 189.971 420.404C189.531 420.87 189.311 421.544 189.311 422.424V428.544H186.511V413.744H189.311V418.844C189.671 418.364 190.151 417.99 190.751 417.724C191.351 417.444 192.018 417.304 192.751 417.304Z" fill="#746767"/>
<path d="M201.154 416.144C200.66 416.144 200.247 415.99 199.914 415.684C199.594 415.364 199.434 414.97 199.434 414.504C199.434 414.037 199.594 413.65 199.914 413.344C200.247 413.024 200.66 412.864 201.154 412.864C201.647 412.864 202.054 413.024 202.374 413.344C202.707 413.65 202.874 414.037 202.874 414.504C202.874 414.97 202.707 415.364 202.374 415.684C202.054 415.99 201.647 416.144 201.154 416.144ZM202.534 417.464V428.544H199.734V417.464H202.534Z" fill="#746767"/>
<path d="M211.44 417.304C212.76 417.304 213.827 417.724 214.64 418.564C215.453 419.39 215.86 420.55 215.86 422.044V428.544H213.06V422.424C213.06 421.544 212.84 420.87 212.4 420.404C211.96 419.924 211.36 419.684 210.6 419.684C209.827 419.684 209.213 419.924 208.76 420.404C208.32 420.87 208.1 421.544 208.1 422.424V428.544H205.3V417.464H208.1V418.844C208.473 418.364 208.947 417.99 209.52 417.724C210.107 417.444 210.747 417.304 211.44 417.304Z" fill="#746767"/>
<path d="M222.863 417.284C223.689 417.284 224.416 417.45 225.043 417.784C225.669 418.104 226.163 418.524 226.523 419.044V417.464H229.343V428.624C229.343 429.65 229.136 430.564 228.723 431.364C228.309 432.177 227.689 432.817 226.863 433.284C226.036 433.764 225.036 434.004 223.863 434.004C222.289 434.004 220.996 433.637 219.983 432.904C218.983 432.17 218.416 431.17 218.283 429.904H221.063C221.209 430.41 221.523 430.81 222.003 431.104C222.496 431.41 223.089 431.564 223.783 431.564C224.596 431.564 225.256 431.317 225.763 430.824C226.269 430.344 226.523 429.61 226.523 428.624V426.904C226.163 427.424 225.663 427.857 225.023 428.204C224.396 428.55 223.676 428.724 222.863 428.724C221.929 428.724 221.076 428.484 220.303 428.004C219.529 427.524 218.916 426.85 218.463 425.984C218.023 425.104 217.803 424.097 217.803 422.964C217.803 421.844 218.023 420.85 218.463 419.984C218.916 419.117 219.523 418.45 220.283 417.984C221.056 417.517 221.916 417.284 222.863 417.284ZM226.523 423.004C226.523 422.324 226.389 421.744 226.123 421.264C225.856 420.77 225.496 420.397 225.043 420.144C224.589 419.877 224.103 419.744 223.583 419.744C223.063 419.744 222.583 419.87 222.143 420.124C221.703 420.377 221.343 420.75 221.063 421.244C220.796 421.724 220.663 422.297 220.663 422.964C220.663 423.63 220.796 424.217 221.063 424.724C221.343 425.217 221.703 425.597 222.143 425.864C222.596 426.13 223.076 426.264 223.583 426.264C224.103 426.264 224.589 426.137 225.043 425.884C225.496 425.617 225.856 425.244 226.123 424.764C226.389 424.27 226.523 423.684 226.523 423.004Z" fill="#746767"/>
<path d="M236.317 428.724C235.411 428.724 234.597 428.564 233.877 428.244C233.157 427.91 232.584 427.464 232.157 426.904C231.744 426.344 231.517 425.724 231.477 425.044H234.297C234.351 425.47 234.557 425.824 234.917 426.104C235.291 426.384 235.751 426.524 236.297 426.524C236.831 426.524 237.244 426.417 237.537 426.204C237.844 425.99 237.997 425.717 237.997 425.384C237.997 425.024 237.811 424.757 237.437 424.584C237.077 424.397 236.497 424.197 235.697 423.984C234.871 423.784 234.191 423.577 233.657 423.364C233.137 423.15 232.684 422.824 232.297 422.384C231.924 421.944 231.737 421.35 231.737 420.604C231.737 419.99 231.911 419.43 232.257 418.924C232.617 418.417 233.124 418.017 233.777 417.724C234.444 417.43 235.224 417.284 236.117 417.284C237.437 417.284 238.491 417.617 239.277 418.284C240.064 418.937 240.497 419.824 240.577 420.944H237.897C237.857 420.504 237.671 420.157 237.337 419.904C237.017 419.637 236.584 419.504 236.037 419.504C235.531 419.504 235.137 419.597 234.857 419.784C234.591 419.97 234.457 420.23 234.457 420.564C234.457 420.937 234.644 421.224 235.017 421.424C235.391 421.61 235.971 421.804 236.757 422.004C237.557 422.204 238.217 422.41 238.737 422.624C239.257 422.837 239.704 423.17 240.077 423.624C240.464 424.064 240.664 424.65 240.677 425.384C240.677 426.024 240.497 426.597 240.137 427.104C239.791 427.61 239.284 428.01 238.617 428.304C237.964 428.584 237.197 428.724 236.317 428.724Z" fill="#746767"/>
<path d="M252.661 428.724C251.595 428.724 250.635 428.49 249.781 428.024C248.928 427.544 248.255 426.87 247.761 426.004C247.281 425.137 247.041 424.137 247.041 423.004C247.041 421.87 247.288 420.87 247.781 420.004C248.288 419.137 248.975 418.47 249.841 418.004C250.708 417.524 251.675 417.284 252.741 417.284C253.808 417.284 254.775 417.524 255.641 418.004C256.508 418.47 257.188 419.137 257.681 420.004C258.188 420.87 258.441 421.87 258.441 423.004C258.441 424.137 258.181 425.137 257.661 426.004C257.155 426.87 256.461 427.544 255.581 428.024C254.715 428.49 253.741 428.724 252.661 428.724ZM252.661 426.284C253.168 426.284 253.641 426.164 254.081 425.924C254.535 425.67 254.895 425.297 255.161 424.804C255.428 424.31 255.561 423.71 255.561 423.004C255.561 421.95 255.281 421.144 254.721 420.584C254.175 420.01 253.501 419.724 252.701 419.724C251.901 419.724 251.228 420.01 250.681 420.584C250.148 421.144 249.881 421.95 249.881 423.004C249.881 424.057 250.141 424.87 250.661 425.444C251.195 426.004 251.861 426.284 252.661 426.284Z" fill="#746767"/>
<path d="M266.635 417.304C267.955 417.304 269.022 417.724 269.835 418.564C270.649 419.39 271.055 420.55 271.055 422.044V428.544H268.255V422.424C268.255 421.544 268.035 420.87 267.595 420.404C267.155 419.924 266.555 419.684 265.795 419.684C265.022 419.684 264.409 419.924 263.955 420.404C263.515 420.87 263.295 421.544 263.295 422.424V428.544H260.495V417.464H263.295V418.844C263.669 418.364 264.142 417.99 264.715 417.724C265.302 417.444 265.942 417.304 266.635 417.304Z" fill="#746767"/>
<path d="M281.284 419.184C281.643 418.597 282.11 418.137 282.684 417.804C283.27 417.47 283.937 417.304 284.684 417.304V420.244H283.944C283.064 420.244 282.397 420.45 281.944 420.864C281.504 421.277 281.284 421.997 281.284 423.024V428.544H278.484V417.464H281.284V419.184Z" fill="#746767"/>
<path d="M296.869 422.764C296.869 423.164 296.843 423.524 296.789 423.844H288.689C288.756 424.644 289.036 425.27 289.529 425.724C290.023 426.177 290.629 426.404 291.349 426.404C292.389 426.404 293.129 425.957 293.569 425.064H296.589C296.269 426.13 295.656 427.01 294.749 427.704C293.843 428.384 292.729 428.724 291.409 428.724C290.343 428.724 289.383 428.49 288.529 428.024C287.689 427.544 287.029 426.87 286.549 426.004C286.083 425.137 285.849 424.137 285.849 423.004C285.849 421.857 286.083 420.85 286.549 419.984C287.016 419.117 287.669 418.45 288.509 417.984C289.349 417.517 290.316 417.284 291.409 417.284C292.463 417.284 293.403 417.51 294.229 417.964C295.069 418.417 295.716 419.064 296.169 419.904C296.636 420.73 296.869 421.684 296.869 422.764ZM293.969 421.964C293.956 421.244 293.696 420.67 293.189 420.244C292.683 419.804 292.063 419.584 291.329 419.584C290.636 419.584 290.049 419.797 289.569 420.224C289.103 420.637 288.816 421.217 288.709 421.964H293.969Z" fill="#746767"/>
<path d="M305.053 417.304C306.373 417.304 307.44 417.724 308.253 418.564C309.067 419.39 309.473 420.55 309.473 422.044V428.544H306.673V422.424C306.673 421.544 306.453 420.87 306.013 420.404C305.573 419.924 304.973 419.684 304.213 419.684C303.44 419.684 302.827 419.924 302.373 420.404C301.933 420.87 301.713 421.544 301.713 422.424V428.544H298.913V417.464H301.713V418.844C302.087 418.364 302.56 417.99 303.133 417.724C303.72 417.444 304.36 417.304 305.053 417.304Z" fill="#746767"/>
<path d="M315.396 419.764V425.124C315.396 425.497 315.483 425.77 315.656 425.944C315.843 426.104 316.149 426.184 316.576 426.184H317.876V428.544H316.116C313.756 428.544 312.576 427.397 312.576 425.104V419.764H311.256V417.464H312.576V414.724H315.396V417.464H317.876V419.764H315.396Z" fill="#746767"/>
<path d="M10.1022 243.684C8.79552 243.684 7.59552 243.377 6.50219 242.764C5.40885 242.15 4.54219 241.304 3.90219 240.224C3.26219 239.13 2.94219 237.897 2.94219 236.524C2.94219 235.164 3.26219 233.944 3.90219 232.864C4.54219 231.77 5.40885 230.917 6.50219 230.304C7.59552 229.69 8.79552 229.384 10.1022 229.384C11.4222 229.384 12.6222 229.69 13.7022 230.304C14.7955 230.917 15.6555 231.77 16.2822 232.864C16.9222 233.944 17.2422 235.164 17.2422 236.524C17.2422 237.897 16.9222 239.13 16.2822 240.224C15.6555 241.304 14.7955 242.15 13.7022 242.764C12.6089 243.377 11.4089 243.684 10.1022 243.684ZM10.1022 241.184C10.9422 241.184 11.6822 240.997 12.3222 240.624C12.9622 240.237 13.4622 239.69 13.8222 238.984C14.1822 238.277 14.3622 237.457 14.3622 236.524C14.3622 235.59 14.1822 234.777 13.8222 234.084C13.4622 233.377 12.9622 232.837 12.3222 232.464C11.6822 232.09 10.9422 231.904 10.1022 231.904C9.26219 231.904 8.51552 232.09 7.86219 232.464C7.22219 232.837 6.72219 233.377 6.36219 234.084C6.00219 234.777 5.82219 235.59 5.82219 236.524C5.82219 237.457 6.00219 238.277 6.36219 238.984C6.72219 239.69 7.22219 240.237 7.86219 240.624C8.51552 240.997 9.26219 241.184 10.1022 241.184Z" fill="#746767"/>
<path d="M26.5253 243.544L23.4453 238.104H22.1253V243.544H19.3253V229.584H24.5653C25.6453 229.584 26.5653 229.777 27.3253 230.164C28.0853 230.537 28.652 231.05 29.0253 231.704C29.412 232.344 29.6053 233.064 29.6053 233.864C29.6053 234.784 29.3386 235.617 28.8053 236.364C28.272 237.097 27.4786 237.604 26.4253 237.884L29.7653 243.544H26.5253ZM22.1253 236.004H24.4653C25.2253 236.004 25.792 235.824 26.1653 235.464C26.5386 235.09 26.7253 234.577 26.7253 233.924C26.7253 233.284 26.5386 232.79 26.1653 232.444C25.792 232.084 25.2253 231.904 24.4653 231.904H22.1253V236.004Z" fill="#746767"/>
<path d="M265.667 191.744V188.877C265.667 187.41 266.867 186.21 268.333 186.21H281.667C283.133 186.21 284.333 187.41 284.333 188.877V191.757C282.787 192.304 281.667 193.77 281.667 195.504V198.21H268.333V195.49C268.333 193.77 267.213 192.29 265.667 191.744ZM285.667 192.877C284.2 192.877 283 194.077 283 195.544V199.544H267V195.544C267 194.836 266.719 194.158 266.219 193.658C265.719 193.158 265.041 192.877 264.333 192.877C263.626 192.877 262.948 193.158 262.448 193.658C261.948 194.158 261.667 194.836 261.667 195.544V202.21C261.667 203.677 262.867 204.877 264.333 204.877V207.544H267V204.877H283V207.544H285.667V204.877C287.133 204.877 288.333 203.677 288.333 202.21V195.544C288.333 194.077 287.133 192.877 285.667 192.877Z" fill="#746767"/>
<path d="M248.016 38.5675C249.509 37.4075 250.747 38.2075 252.4 40.1211C252.586 40.3371 252.835 40.0843 252.978 39.9611C253.118 39.8363 255.299 37.8731 255.406 37.7835C255.512 37.6891 255.64 37.5131 255.472 37.3163C255.067 36.8158 254.671 36.3085 254.283 35.7947C251.39 32.0107 262.197 29.4443 260.538 29.4043C259.693 29.3819 256.304 29.3419 255.797 29.3979C253.744 29.6139 251.166 31.5323 249.869 32.4267C248.171 33.5883 247.538 34.27 247.434 34.3643C246.954 34.7836 247.357 35.7515 246.486 36.5147C245.566 37.3195 244.992 36.7099 244.459 37.1771C244.195 37.4107 243.456 37.9643 243.245 38.1483C243.032 38.3355 242.994 38.6507 243.211 38.9019C243.211 38.9019 245.234 41.1356 245.403 41.334C245.571 41.5292 246.029 41.6987 246.31 41.4475C246.594 41.1979 247.322 40.5627 247.443 40.4507C247.568 40.3451 247.363 39.0731 248.016 38.5675ZM257.149 39.3947C256.957 39.1723 256.718 39.1659 256.514 39.3483L254.219 41.3515C254.131 41.4319 254.077 41.5435 254.069 41.6628C254.061 41.7822 254.099 41.9 254.176 41.9915L267.446 57.0939C267.757 57.4507 268.294 57.4875 268.648 57.1787L270.2 55.8779C270.371 55.7275 270.475 55.5158 270.491 55.2887C270.507 55.0616 270.432 54.8375 270.283 54.6651L257.149 39.3947ZM274.843 32.9675C274.725 32.1771 274.315 32.3419 274.102 32.6763C273.89 33.014 272.949 34.4395 272.562 35.0859C272.178 35.7259 271.23 36.9915 269.467 35.7419C267.63 34.4443 268.269 33.5387 268.589 32.9291C268.91 32.3163 269.898 30.5979 270.04 30.3851C270.182 30.1691 270.016 29.5419 269.446 29.8043C268.875 30.0667 265.41 31.4443 264.93 33.4203C264.438 35.43 265.341 37.2267 263.57 39.0107L261.421 41.2507L263.579 43.7563L266.226 41.2443C266.856 40.6107 268.203 39.9947 269.422 40.2731C272.035 40.8635 273.461 39.8827 274.32 38.2603C275.091 36.8107 274.963 33.7579 274.843 32.9675ZM247.382 54.8283C247.222 54.9896 247.133 55.2076 247.133 55.4347C247.133 55.6619 247.222 55.8799 247.382 56.0411L248.904 57.5291C249.237 57.8635 249.765 57.7227 250.098 57.3883L257.949 49.6699L255.544 46.9275L247.382 54.8283Z" fill="#746767"/>
<path d="M108.709 350.224C108.76 350.409 108.695 350.614 108.587 350.774L105.137 355.907C105.009 356.105 104.741 356.214 104.516 356.214C104.452 356.214 104.273 356.201 104.203 356.182L101.438 355.504V367.664C101.438 368.035 101.176 368.304 100.798 368.304H87.3582C86.9806 368.304 86.7182 368.035 86.7182 367.664V355.504L84.235 356.188C83.947 356.278 83.6974 356.163 83.5374 355.913L80.1134 350.793C80.0046 350.627 79.9726 350.441 80.0238 350.256C80.0686 350.064 80.203 349.936 80.3758 349.846L87.3582 346.544H90.5582C90.9358 346.544 91.1982 346.806 91.1982 347.184C91.1982 348.502 93.0478 349.436 94.3662 349.436C95.6846 349.436 97.5982 348.508 97.5982 347.184C97.5982 346.812 97.8606 346.544 98.2382 346.544H101.438L108.35 349.782C108.529 349.872 108.657 350.032 108.709 350.224Z" fill="#746767"/>
<path d="M101.758 144.762L101.465 144.657L98.9819 140.002C98.5156 139.127 97.8202 138.396 96.9702 137.886C96.1202 137.376 95.1476 137.106 94.1562 137.106H87.9044C86.7563 137.106 85.6374 137.467 84.7061 138.139C83.7748 138.81 83.0784 139.757 82.7156 140.847L81.5322 144.397C80.5407 144.815 79.6945 145.516 79.0996 146.412C78.5047 147.309 78.1874 148.361 78.1875 149.437V151.872C78.1875 153.425 79.1128 154.759 80.4406 155.361C80.6126 156.346 81.1169 157.242 81.8695 157.901C82.6222 158.56 83.5777 158.94 84.577 158.98C85.5763 159.02 86.5591 158.716 87.3615 158.119C88.164 157.522 88.7377 156.668 88.9872 155.7H98.0128C98.2623 156.668 98.836 157.522 99.6385 158.119C100.441 158.716 101.424 159.02 102.423 158.98C103.422 158.94 104.378 158.56 105.13 157.901C105.883 157.242 106.387 156.346 106.559 155.361C107.231 155.058 107.801 154.567 108.2 153.948C108.6 153.329 108.812 152.608 108.812 151.872V151.13C108.812 150.001 108.463 148.9 107.812 147.978C107.161 147.055 106.24 146.357 105.177 145.979L101.874 144.804V144.762H101.758ZM84.7894 141.538C85.0071 140.884 85.4252 140.315 85.9844 139.913C86.5435 139.51 87.2152 139.293 87.9044 139.294H90.2188V144.762H83.7153L84.7894 141.538ZM92.4062 144.762V139.294H94.1562C94.7511 139.293 95.3348 139.455 95.845 139.761C96.3551 140.067 96.7725 140.506 97.0525 141.03L99.0431 144.762H92.4062ZM82.5625 154.606C82.5625 154.026 82.793 153.469 83.2032 153.059C83.6134 152.649 84.1698 152.419 84.75 152.419C85.3302 152.419 85.8866 152.649 86.2968 153.059C86.707 153.469 86.9375 154.026 86.9375 154.606C86.9375 155.186 86.707 155.743 86.2968 156.153C85.8866 156.563 85.3302 156.794 84.75 156.794C84.1698 156.794 83.6134 156.563 83.2032 156.153C82.793 155.743 82.5625 155.186 82.5625 154.606ZM102.25 152.419C102.83 152.419 103.387 152.649 103.797 153.059C104.207 153.469 104.438 154.026 104.438 154.606C104.438 155.186 104.207 155.743 103.797 156.153C103.387 156.563 102.83 156.794 102.25 156.794C101.67 156.794 101.113 156.563 100.703 156.153C100.293 155.743 100.062 155.186 100.062 154.606C100.062 154.026 100.293 153.469 100.703 153.059C101.113 152.649 101.67 152.419 102.25 152.419Z" fill="#746767"/>
<path d="M205 91.5435C205 92.8696 204.473 94.1414 203.536 95.0791C202.598 96.0167 201.326 96.5435 200 96.5435C198.674 96.5435 197.402 96.0167 196.464 95.0791C195.527 94.1414 195 92.8696 195 91.5435C195 90.2175 195.527 88.9457 196.464 88.008C197.402 87.0703 198.674 86.5435 200 86.5435C201.326 86.5435 202.598 87.0703 203.536 88.008C204.473 88.9457 205 90.2175 205 91.5435Z" fill="#746767"/>
<path d="M188 82.5435C186.939 82.5435 185.922 82.965 185.172 83.7151C184.421 84.4652 184 85.4827 184 86.5435V98.5435C184 99.6044 184.421 100.622 185.172 101.372C185.922 102.122 186.939 102.544 188 102.544H212C213.061 102.544 214.078 102.122 214.828 101.372C215.579 100.622 216 99.6044 216 98.5435V86.5435C216 85.4827 215.579 84.4652 214.828 83.7151C214.078 82.965 213.061 82.5435 212 82.5435H209.656C208.595 82.5433 207.578 82.1217 206.828 81.3715L205.172 79.7155C204.422 78.9653 203.405 78.5438 202.344 78.5435H197.656C196.595 78.5438 195.578 78.9653 194.828 79.7155L193.172 81.3715C192.422 82.1217 191.405 82.5433 190.344 82.5435H188ZM189 86.5435C188.735 86.5435 188.48 86.4382 188.293 86.2506C188.105 86.0631 188 85.8087 188 85.5435C188 85.2783 188.105 85.024 188.293 84.8364C188.48 84.6489 188.735 84.5435 189 84.5435C189.265 84.5435 189.52 84.6489 189.707 84.8364C189.895 85.024 190 85.2783 190 85.5435C190 85.8087 189.895 86.0631 189.707 86.2506C189.52 86.4382 189.265 86.5435 189 86.5435ZM207 91.5435C207 93.4 206.263 95.1805 204.95 96.4933C203.637 97.806 201.857 98.5435 200 98.5435C198.143 98.5435 196.363 97.806 195.05 96.4933C193.737 95.1805 193 93.4 193 91.5435C193 89.687 193.737 87.9065 195.05 86.5938C196.363 85.281 198.143 84.5435 200 84.5435C201.857 84.5435 203.637 85.281 204.95 86.5938C206.263 87.9065 207 89.687 207 91.5435Z" fill="#746767"/>
<path d="M287.146 345.419V343.877H285.604L284.062 345.419H277.125L275.583 343.877H274.042L264.792 350.044H260.167C259.349 350.044 258.565 350.368 257.986 350.947C257.408 351.525 257.083 352.309 257.083 353.127V356.21H269.417L274.042 354.669H277.125V356.21H287.146V353.127C287.146 353.127 287.917 351.585 287.917 349.273C287.917 346.96 287.146 345.419 287.146 345.419Z" fill="#746767"/>
<path d="M192.938 324.794H179.438C177.573 324.794 176.062 326.304 176.062 328.169V329.856C176.062 330.788 176.818 331.544 177.75 331.544H194.625C195.557 331.544 196.312 330.788 196.312 329.856V328.169C196.312 326.304 194.802 324.794 192.938 324.794ZM186.188 329.856C185.256 329.856 184.5 329.1 184.5 328.169C184.5 327.237 185.256 326.481 186.188 326.481C187.119 326.481 187.875 327.237 187.875 328.169C187.875 329.1 187.119 329.856 186.188 329.856ZM188.297 307.919H197.079L198 304.544H173.531C172.133 304.544 171 305.677 171 307.075V315.512C171 316.91 172.133 318.044 173.531 318.044H178.977L179.438 323.106H192.938L193.858 319.731H188.297C188.064 319.731 187.875 319.542 187.875 319.309V318.465C187.875 318.232 188.064 318.044 188.297 318.044H194.318L195.239 314.669H188.297C188.064 314.669 187.875 314.48 187.875 314.247V313.403C187.875 313.17 188.064 312.981 188.297 312.981H195.699L196.619 309.606H188.297C188.064 309.606 187.875 309.417 187.875 309.184V308.34C187.875 308.107 188.064 307.919 188.297 307.919ZM174.375 314.669V307.919H178.057L178.671 314.669H174.375Z" fill="#746767"/>
<path d="M122.375 257.004C126.699 257.004 130.212 253.687 130.361 249.544C130.212 245.4 126.699 242.084 122.375 242.084C118.051 242.084 114.537 245.4 114.389 249.544C114.536 253.687 118.051 257.004 122.375 257.004Z" fill="#746767"/>
<path d="M122.375 238.544C116.3 238.544 111.374 243.469 111.374 249.544C111.374 255.618 116.3 260.544 122.375 260.544C128.449 260.544 133.375 255.618 133.375 249.544C133.375 243.469 128.449 238.544 122.375 238.544ZM122.374 257.544C117.956 257.544 114.374 254.083 114.374 249.813C114.374 249.722 114.386 249.634 114.389 249.544C114.386 249.454 114.374 249.365 114.374 249.274C114.374 245.004 117.956 241.544 122.374 241.544C126.793 241.544 130.374 245.004 130.374 249.274C130.374 249.365 130.364 249.454 130.361 249.544C130.364 249.634 130.374 249.722 130.374 249.813C130.374 254.083 126.793 257.544 122.374 257.544Z" fill="#746767"/>
<path d="M107.741 237.254C107.861 236.784 108.098 237.249 108.098 237.249C108.098 237.249 108.181 242.119 108.721 242.172C109.261 242.225 108.845 237.161 109.484 237.064C110.078 236.969 109.739 242.252 110.28 242.199C110.819 242.142 110.91 237.274 110.91 237.274C110.91 237.274 111.15 236.809 111.269 237.276C112.732 243.031 111.548 245.384 111.548 245.384C111.548 245.384 111.348 245.878 110.873 245.881C110.828 245.878 110.862 259.549 110.859 261.387C110.86 262.28 108.109 262.253 108.11 261.363C108.112 259.525 108.166 245.856 108.123 245.857C107.646 245.857 107.447 245.363 107.447 245.363C107.447 245.363 106.267 243.012 107.741 237.254ZM133.81 237.044C134.429 237.042 136.997 238.894 137 245.775C137.003 247.975 135.803 247.975 135.805 249.351C135.807 250.725 135.814 261.654 135.814 261.654C135.814 261.654 134.497 262.558 133.518 261.612L133.5 237.239C133.501 237.24 133.497 237.043 133.81 237.044Z" fill="#746767"/>
<path d="M78.5 468.544H100.5L97.5 477.544H76L78.5 471.544V468.544Z" fill="#F2FEC1"/>
<path d="M50.906 488.784C50.3338 488.349 49.8599 487.798 49.5151 487.167C49.1703 486.536 48.9623 485.84 48.9048 485.124C48.892 484.957 48.8881 484.79 48.893 484.623L27.2307 470.058C26.5218 469.577 25.9876 468.879 25.7079 468.07C25.4282 467.261 25.4179 466.383 25.6786 465.568L36.0319 439.888C36.4774 438.783 37.3436 437.899 38.4406 437.43C39.5377 436.961 40.7763 436.944 41.8853 437.385C42.9942 437.825 43.8832 438.687 44.3575 439.78C44.8318 440.873 44.8528 442.11 44.4159 443.219L36.0569 464.437L52.9246 479.732C53.1472 479.682 53.3731 479.647 53.6006 479.628C54.9033 479.524 56.1963 479.922 57.2145 480.74C58.2326 481.558 58.8987 482.734 59.0762 484.027C59.2537 485.319 58.9291 486.631 58.169 487.692C57.4089 488.753 56.2709 489.484 54.9884 489.734C54.6593 489.798 54.3249 489.83 53.9898 489.83C52.8744 489.831 51.7902 489.463 50.906 488.784Z" fill="#A0616A"/>
<path d="M27.2395 455.009C27.1128 454.713 27.0513 454.394 27.0595 454.073C27.0676 453.751 27.1451 453.436 27.2867 453.147L32.229 443.062C32.7277 441.495 33.8286 440.189 35.2904 439.43C36.7522 438.672 38.4556 438.523 40.0271 439.017C41.5986 439.51 42.9099 440.606 43.6736 442.063C44.4373 443.52 44.591 445.22 44.101 446.79L42.2966 457.909C42.2451 458.226 42.1257 458.529 41.9465 458.796C41.7673 459.063 41.5326 459.288 41.2583 459.457C40.984 459.625 40.6766 459.732 40.3569 459.771C40.0373 459.81 39.7131 459.78 39.4062 459.683L28.621 456.261C28.3141 456.164 28.0317 456.002 27.7933 455.786C27.5549 455.57 27.366 455.305 27.2395 455.009Z" fill="#475FCB"/>
<path d="M58.5512 583.166H64.2543L66.9671 561.206L58.5503 561.206L58.5512 583.166Z" fill="#A0616A"/>
<path d="M57.0964 581.308L68.3275 581.307C69.2674 581.307 70.1986 581.492 71.067 581.851C71.9354 582.21 72.7244 582.736 73.389 583.4C74.0537 584.063 74.5809 584.851 74.9406 585.718C75.3002 586.585 75.4854 587.514 75.4854 588.452V588.685L57.0968 588.685L57.0964 581.308Z" fill="#2F2E41"/>
<path d="M2.78479 579.133L8.30827 580.549L16.4116 559.954L8.25942 557.863L2.78479 579.133Z" fill="#A0616A"/>
<path d="M1.83931 576.971L12.7169 579.761C13.6273 579.995 14.4831 580.405 15.2346 580.969C15.9861 581.532 16.619 582.238 17.0973 583.046C17.5756 583.854 17.8898 584.748 18.022 585.677C18.1542 586.606 18.1018 587.552 17.8678 588.46L17.8099 588.685L0 584.116L1.83931 576.971Z" fill="#2F2E41"/>
<path d="M45.5622 428.859C51.8722 428.859 56.9874 423.753 56.9874 417.453C56.9874 411.154 51.8722 406.047 45.5622 406.047C39.2523 406.047 34.1371 411.154 34.1371 417.453C34.1371 423.753 39.2523 428.859 45.5622 428.859Z" fill="#A0616A"/>
<path d="M39.7837 464.896C37.0655 462.103 34.7575 458.94 32.9289 455.5C31.9563 453.614 31.3901 451.545 31.2667 449.428C31.1433 447.31 31.4654 445.19 32.2124 443.204C32.9751 441.174 34.1552 439.326 35.6767 437.779C37.1982 436.231 39.0273 435.019 41.0464 434.22C44.5872 432.786 48.5377 432.727 52.1202 434.054C55.7027 435.382 58.6576 438 60.4033 441.394C63.2622 446.979 64.3825 452.44 63.7334 457.625C62.4922 467.538 61.7656 472.662 61.5738 472.853L61.5099 472.917L40.2564 473.86L39.7837 464.896Z" fill="#475FCB"/>
<path d="M41.046 471.117L60.0656 470.172C60.5459 470.148 61.0167 470.31 61.3795 470.625C61.7423 470.941 61.9687 471.384 62.0114 471.862L70.7607 569.771C70.784 570.031 70.752 570.293 70.6669 570.54C70.5818 570.787 70.4455 571.013 70.2669 571.204C70.0883 571.395 69.8713 571.546 69.6302 571.648C69.3892 571.749 69.1294 571.799 68.8678 571.793L61.4372 571.635C61.0286 571.627 60.6341 571.484 60.3149 571.229C59.9956 570.974 59.7693 570.622 59.6709 570.226L45.4755 513.123C45.3826 512.749 45.1758 512.413 44.8836 512.162C44.5914 511.911 44.2283 511.757 43.8445 511.721C43.4606 511.684 43.075 511.768 42.7409 511.96C42.4068 512.152 42.1407 512.443 41.9794 512.793L15.0785 571.121C14.8958 571.517 14.5793 571.836 14.1844 572.023C13.7895 572.209 13.3415 572.251 12.9187 572.141L5.44073 570.194C4.97787 570.074 4.57914 569.78 4.32747 569.374C4.07579 568.968 3.99054 568.481 4.08945 568.014C6.54986 556.419 21.2877 490.017 39.8434 471.637C40.1664 471.322 40.5946 471.136 41.046 471.117Z" fill="#2F2E41"/>
<path d="M77.0632 482.11C76.3754 481.898 75.7401 481.544 75.1985 481.071C74.6569 480.598 74.2211 480.016 73.9196 479.364C73.85 479.212 73.7884 479.056 73.7351 478.898L48.3686 472.692C47.5367 472.484 46.7943 472.014 46.2521 471.35C45.7098 470.687 45.3967 469.867 45.3594 469.012L46.1989 441.344C46.235 440.153 46.7423 439.025 47.6097 438.206C48.477 437.388 49.6338 436.946 50.8269 436.977C52.0199 437.009 53.1519 437.511 53.9751 438.373C54.7983 439.236 55.2456 440.389 55.2191 441.58L54.709 464.374L75.8283 472.918C76.0198 472.794 76.2196 472.684 76.4262 472.587C77.1804 472.238 78.0086 472.078 78.8389 472.119C79.6691 472.161 80.4767 472.404 81.1918 472.827C81.907 473.251 82.5082 473.841 82.9436 474.548C83.3789 475.255 83.6354 476.057 83.6908 476.886C83.7461 477.714 83.5988 478.543 83.2614 479.301C82.924 480.06 82.4068 480.725 81.7543 481.239C81.1019 481.753 80.3338 482.102 79.5165 482.253C78.6992 482.405 77.8572 482.356 77.0632 482.11Z" fill="#A0616A"/>
<path d="M43.4934 455.13C43.2745 454.894 43.1091 454.614 43.0085 454.309C42.9079 454.004 42.8745 453.68 42.9106 453.361L44.1678 442.204C44.1095 440.56 44.7064 438.961 45.8276 437.756C46.9488 436.551 48.5028 435.839 50.149 435.776C51.7951 435.713 53.3991 436.305 54.6092 437.421C55.8193 438.537 56.5367 440.086 56.6043 441.729L58.6504 452.806C58.7088 453.122 58.6982 453.447 58.6194 453.759C58.5406 454.07 58.3955 454.362 58.1939 454.612C57.9923 454.863 57.7389 455.067 57.4511 455.211C57.1633 455.355 56.8477 455.436 56.5259 455.447L45.2163 455.846C44.8945 455.857 44.5739 455.799 44.2766 455.676C43.9792 455.552 43.7121 455.366 43.4934 455.13Z" fill="#475FCB"/>
<path d="M29.191 432.512L30.3848 428.66L31.2011 432.983L37.9057 432.806L37.8748 428.544L40.4235 432.75L46.499 431.41C45.201 429.683 43.8877 427.929 43.0576 425.894C42.2275 423.859 41.9253 421.472 42.7009 419.412C44.6185 414.318 51.8887 415.744 55.8652 415.7C57.0253 415.688 58.335 415.604 59.0947 414.658C59.6668 413.945 59.7606 412.925 59.7316 411.982C59.5822 407.127 56.6625 402.495 52.5347 400.565C50.5142 399.636 48.2616 399.331 46.0664 399.69C44.9214 399.87 43.8096 400.22 42.7676 400.727C41.8385 401.18 40.8628 402.259 39.8625 402.23C39.0219 402.205 37.909 401.331 36.9943 401.182C35.8923 401.012 34.7681 401.051 33.6806 401.298C31.4953 401.784 29.5253 402.961 28.0631 404.653C24.9556 408.258 24.0322 413.57 24.5738 418.46C25.1155 423.35 26.9479 427.949 28.76 432.469" fill="#2F2E41"/>
</svg>
