<svg width="64" height="74" viewBox="0 0 64 74" fill="none" xmlns="http://www.w3.org/2000/svg">
<path d="M61.6747 38C61.6747 61.6 42.4304 74 23.6314 74C4.83237 74 0.00465379 71.2 0.00456832 48.4C0.00449184 28 -0.773856 0 18.0252 0C36.8242 0 61.6747 18 61.6747 38Z" fill="white"/>
<path d="M42.5153 63.4719C43.5795 64.373 42.9684 66.1115 41.5828 66.1246L27.0577 66.2623C26.0155 66.2722 25.2754 65.233 25.6222 64.2466L28.9914 54.6623C29.3382 53.6759 30.559 53.3475 31.3595 54.0254L42.5153 63.4719Z" fill="#475FCB"/>
<path d="M51.2993 30.6918C52.4267 29.9876 53.8373 31.0207 53.5353 32.3292L47.8008 57.1736C47.5591 58.2207 46.3443 58.6777 45.4817 58.046L29.8118 46.5709C28.9493 45.9393 28.9927 44.6245 29.8948 44.0611L51.2993 30.6918Z" fill="#475FCB"/>
<path d="M48.7464 22.3707C49.7171 22.9533 49.7171 24.3603 48.7464 24.9429L29.1281 36.7183C28.1284 37.3184 26.8562 36.5983 26.8562 35.4322L26.8562 11.8814C26.8562 10.7153 28.1283 9.99518 29.1281 10.5953L48.7464 22.3707Z" fill="#475FCB"/>
<rect x="7.40097" y="9.32422" width="13.7331" height="57.3304" rx="1.5" fill="#475FCB"/>
</svg>
