<svg width="194" height="152" viewBox="0 0 194 152" fill="none" xmlns="http://www.w3.org/2000/svg">
<g clip-path="url(#clip0_1_263)">
<path d="M176.591 138.76C172.872 142.734 168.61 146.164 163.932 148.951C163.825 149.017 163.716 149.079 163.606 149.143L156.033 142.454C156.113 142.38 156.201 142.297 156.296 142.206C161.939 136.859 189.953 99.4722 191.819 90.3679C191.691 91.1264 193.504 120.871 176.591 138.76Z" fill="#F0F0F0"/>
<path d="M165.394 150.242C165.25 150.276 165.105 150.308 164.959 150.337L159.277 145.319C159.388 145.28 159.518 145.234 159.666 145.183C162.104 144.322 169.365 141.721 176.59 138.76C184.354 135.576 192.081 131.978 193.743 129.674C193.386 130.209 182.406 146.446 165.394 150.242Z" fill="#F0F0F0"/>
<path d="M176.486 39.8084H175.677V17.6883C175.677 16.0071 175.345 14.3423 174.7 12.789C174.055 11.2357 173.11 9.8244 171.919 8.63557C170.728 7.44675 169.314 6.50372 167.757 5.86034C166.201 5.21695 164.532 4.8858 162.848 4.8858H115.886C114.202 4.8858 112.534 5.21694 110.977 5.86032C109.421 6.50371 108.006 7.44673 106.815 8.63555C105.624 9.82437 104.679 11.2357 104.034 12.789C103.389 14.3422 103.057 16.007 103.057 17.6883V139.041C103.057 140.722 103.389 142.387 104.034 143.94C104.679 145.493 105.624 146.905 106.815 148.094C108.006 149.282 109.421 150.225 110.977 150.869C112.533 151.512 114.202 151.843 115.886 151.843H162.848C164.532 151.843 166.201 151.512 167.757 150.869C169.314 150.225 170.728 149.282 171.919 148.094C173.11 146.905 174.055 145.493 174.7 143.94C175.345 142.387 175.677 140.722 175.677 139.041V55.5538H176.486V39.8084Z" fill="#3F3D56"/>
<path d="M172.946 17.7763V138.952C172.946 140.208 172.698 141.451 172.216 142.611C171.735 143.771 171.029 144.825 170.139 145.712C169.249 146.6 168.193 147.304 167.03 147.784C165.868 148.264 164.622 148.511 163.364 148.511H116.177C114.919 148.511 113.673 148.264 112.511 147.783C111.349 147.303 110.293 146.599 109.403 145.711C108.514 144.824 107.808 143.77 107.327 142.61C106.846 141.45 106.598 140.207 106.598 138.952V17.7763C106.598 16.521 106.846 15.2779 107.327 14.1182C107.808 12.9584 108.514 11.9046 109.403 11.017C110.293 10.1293 111.349 9.42524 112.511 8.9449C113.673 8.46456 114.919 8.21737 116.177 8.21747H121.903C121.622 8.90721 121.515 9.6553 121.591 10.396C121.668 11.1366 121.926 11.8472 122.342 12.4651C122.758 13.083 123.321 13.5893 123.979 13.9396C124.637 14.2899 125.372 14.4733 126.118 14.4738H153.021C153.768 14.4745 154.503 14.2919 155.162 13.9419C155.821 13.592 156.384 13.0855 156.8 12.4673C157.217 11.849 157.474 11.1379 157.551 10.3968C157.627 9.65561 157.519 8.90717 157.236 8.21747H163.364C164.622 8.21701 165.868 8.46392 167.03 8.94409C168.193 9.42427 169.249 10.1283 170.139 11.016C171.029 11.9036 171.735 12.9575 172.216 14.1175C172.698 15.2774 172.946 16.5207 172.946 17.7763Z" fill="white"/>
<path d="M158.267 80.7457H116.791C116.065 80.7449 115.368 80.4565 114.855 79.9439C114.341 79.4313 114.052 78.7362 114.051 78.0112V76.6501C114.052 75.9252 114.341 75.2301 114.855 74.7175C115.368 74.2049 116.065 73.9165 116.791 73.9157H158.267C158.994 73.9165 159.69 74.2049 160.204 74.7175C160.718 75.2301 161.007 75.9252 161.008 76.6501V78.0112C161.007 78.7362 160.718 79.4313 160.204 79.9439C159.69 80.4565 158.994 80.7449 158.267 80.7457Z" fill="#F0F0F0"/>
<path d="M158.267 92.4785H116.791C116.065 92.4777 115.368 92.1893 114.855 91.6767C114.341 91.1641 114.052 90.469 114.051 89.7441V88.383C114.052 87.658 114.341 86.9629 114.855 86.4503C115.368 85.9377 116.065 85.6493 116.791 85.6485H158.267C158.994 85.6493 159.69 85.9377 160.204 86.4503C160.718 86.9629 161.007 87.658 161.008 88.383V89.7441C161.007 90.469 160.718 91.1641 160.204 91.6767C159.69 92.1893 158.994 92.4777 158.267 92.4785Z" fill="#F0F0F0"/>
<path d="M160.342 78.1217H118.866C118.103 78.1208 117.372 77.818 116.833 77.2797C116.293 76.7415 115.99 76.0117 115.989 75.2505V73.8894C115.99 73.1282 116.293 72.3984 116.833 71.8601C117.372 71.3218 118.103 71.0191 118.866 71.0182H160.342C161.105 71.0191 161.836 71.3218 162.376 71.8601C162.915 72.3984 163.218 73.1282 163.219 73.8894V75.2505C163.218 76.0117 162.915 76.7415 162.376 77.2797C161.836 77.818 161.105 78.1208 160.342 78.1217ZM118.866 71.5651C118.249 71.5658 117.656 71.8109 117.22 72.2466C116.783 72.6824 116.538 73.2731 116.537 73.8894V75.2505C116.538 75.8667 116.783 76.4575 117.22 76.8932C117.656 77.329 118.249 77.5741 118.866 77.5748H160.342C160.96 77.5741 161.552 77.329 161.988 76.8932C162.425 76.4575 162.671 75.8667 162.671 75.2505V73.8894C162.671 73.2731 162.425 72.6824 161.988 72.2466C161.552 71.8109 160.96 71.5658 160.342 71.5651H118.866Z" fill="#EC8932"/>
<path d="M160.342 89.8545H118.866C118.103 89.8536 117.372 89.5508 116.833 89.0126C116.293 88.4743 115.99 87.7445 115.989 86.9833V85.6222C115.99 84.861 116.293 84.1312 116.833 83.5929C117.372 83.0547 118.103 82.7519 118.866 82.751H160.342C161.105 82.7519 161.836 83.0547 162.376 83.5929C162.915 84.1312 163.218 84.861 163.219 85.6222V86.9833C163.218 87.7445 162.915 88.4743 162.376 89.0126C161.836 89.5508 161.105 89.8536 160.342 89.8545ZM118.866 83.2979C118.249 83.2986 117.656 83.5437 117.22 83.9794C116.783 84.4152 116.538 85.006 116.537 85.6222V86.9833C116.538 87.5995 116.783 88.1903 117.22 88.6261C117.656 89.0618 118.249 89.3069 118.866 89.3076H160.342C160.96 89.3069 161.552 89.0618 161.988 88.6261C162.425 88.1903 162.671 87.5995 162.671 86.9833V85.6222C162.671 85.006 162.425 84.4152 161.988 83.9794C161.552 83.5437 160.96 83.2986 160.342 83.2979H118.866Z" fill="#EC8932"/>
<path d="M172.946 17.7763V44.1337C168.749 45.2355 164.355 45.3619 160.102 44.5032C155.848 43.6445 151.849 41.8235 148.411 39.1803C144.974 36.5372 142.19 33.1423 140.273 29.257C138.357 25.3716 137.359 21.0992 137.356 16.7686C137.356 15.9957 137.388 15.2307 137.45 14.4738H153.021C153.767 14.4745 154.503 14.2919 155.162 13.9419C155.821 13.592 156.384 13.0855 156.8 12.4673C157.217 11.849 157.474 11.1379 157.55 10.3968C157.627 9.65561 157.519 8.90717 157.236 8.21747H163.364C164.622 8.21701 165.868 8.46392 167.03 8.94409C168.193 9.42427 169.249 10.1283 170.139 11.016C171.029 11.9036 171.735 12.9575 172.216 14.1175C172.698 15.2774 172.946 16.5207 172.946 17.7763Z" fill="#F0F0F0"/>
<path d="M130.441 146.865C130.441 147.42 130.42 147.969 130.375 148.511H116.177C114.919 148.511 113.673 148.264 112.511 147.783C111.349 147.303 110.293 146.599 109.403 145.711C108.514 144.824 107.808 143.77 107.327 142.61C106.846 141.45 106.598 140.207 106.598 138.952V125.991C109.574 125.604 112.599 125.856 115.47 126.728C118.341 127.6 120.993 129.072 123.249 131.047C125.505 133.023 127.314 135.455 128.554 138.182C129.794 140.91 130.437 143.87 130.441 146.865H130.441Z" fill="#6C63FF"/>
<path d="M15.9259 124.122C16.3248 124.298 16.7771 124.308 17.1835 124.15C17.5898 123.993 17.9171 123.682 18.0936 123.284L30.8842 94.3549C31.177 93.6929 31.2664 92.9591 31.1413 92.2463C31.0161 91.5336 30.6819 90.8738 30.181 90.3506C29.6802 89.8274 29.035 89.4641 28.3273 89.3068C27.6195 89.1495 26.8809 89.2051 26.2048 89.4668H26.2048C25.4237 89.7644 24.7701 90.323 24.3552 91.0474C24.2892 91.162 24.2293 91.28 24.1759 91.4009L11.3852 120.33C11.298 120.527 11.2506 120.739 11.2457 120.955C11.2407 121.17 11.2784 121.384 11.3564 121.585C11.4345 121.786 11.5514 121.97 11.7006 122.126C11.8497 122.281 12.0281 122.406 12.2257 122.493L15.9259 124.122Z" fill="#6C63FF"/>
<path d="M30.3591 106.231L17.7075 103.426L20.8389 95.1589C21.3724 93.1383 22.6138 91.3755 24.3381 90.1901C26.0624 89.0047 28.1553 88.4753 30.2372 88.6979L30.3591 88.7114L30.3591 106.231Z" fill="#2F2E41"/>
<path d="M55.9134 124.536C55.5412 124.536 55.1773 124.427 54.8655 124.225C54.5537 124.022 54.3074 123.734 54.1564 123.394L41.3658 94.4652C40.959 93.5447 40.9212 92.5037 41.2602 91.5563C41.5991 90.6088 42.289 89.8271 43.1879 89.3718C44.0868 88.9165 45.1264 88.8224 46.0928 89.1087C47.0591 89.395 47.8788 90.0401 48.3831 90.9111V90.911C48.454 91.034 48.5182 91.1608 48.5756 91.2906L61.3662 120.22C61.5716 120.684 61.5836 121.211 61.3997 121.684C61.2158 122.158 60.8511 122.539 60.3857 122.744L56.5601 124.428L56.5581 124.424C56.3513 124.498 56.1332 124.536 55.9134 124.536Z" fill="#6C63FF"/>
<path d="M38.2206 114.602C37.7847 114.603 37.3668 114.776 37.0586 115.083C36.7504 115.391 36.577 115.808 36.5765 116.243V149.881C36.577 150.316 36.7504 150.733 37.0586 151.04C37.3668 151.348 37.7847 151.521 38.2206 151.521H42.2649C42.7008 151.521 43.1187 151.348 43.4269 151.04C43.7351 150.733 43.9085 150.316 43.9089 149.881V116.243C43.9085 115.808 43.7351 115.391 43.4269 115.083C43.1187 114.776 42.7008 114.603 42.2649 114.602H38.2206Z" fill="#6C63FF"/>
<path d="M30.2216 114.602C29.7857 114.603 29.3678 114.776 29.0596 115.083C28.7514 115.391 28.578 115.808 28.5775 116.243V149.881C28.578 150.316 28.7514 150.733 29.0596 151.04C29.3678 151.348 29.7857 151.521 30.2216 151.521H34.2659C34.7018 151.521 35.1197 151.348 35.4279 151.04C35.7361 150.733 35.9095 150.316 35.91 149.881V116.243C35.9095 115.808 35.7361 115.391 35.4279 115.083C35.1197 114.776 34.7018 114.603 34.2659 114.602H30.2216Z" fill="#6C63FF"/>
<path d="M36.1224 79.3608C43.8403 79.3608 50.097 73.117 50.097 65.415C50.097 57.713 43.8403 51.4692 36.1224 51.4692C28.4045 51.4692 22.1478 57.713 22.1478 65.415C22.1478 73.117 28.4045 79.3608 36.1224 79.3608Z" fill="#6C63FF"/>
<path d="M40.7728 71.2692C41.6787 71.2441 42.8061 71.2127 43.6746 70.5795C43.9332 70.3833 44.1457 70.1329 44.2972 69.8461C44.4486 69.5592 44.5354 69.2428 44.5514 68.919C44.5672 68.6888 44.5293 68.4581 44.4409 68.245C44.3525 68.0319 44.2158 67.842 44.0417 67.6903C43.5881 67.3078 42.9256 67.2181 42.2118 67.4274L42.9514 62.0335L42.4085 61.9593L41.539 68.3005L41.9924 68.0929C42.518 67.8523 43.2396 67.7298 43.6879 68.108C43.798 68.2068 43.8838 68.3297 43.9386 68.467C43.9934 68.6043 44.0157 68.7524 44.0038 68.8997C43.9905 69.1408 43.9253 69.3761 43.8128 69.5898C43.7002 69.8034 43.5428 69.9903 43.3513 70.1379C42.6754 70.6305 41.7768 70.6941 40.7576 70.7225L40.7728 71.2692Z" fill="#2F2E41"/>
<path d="M48.588 62.4987H45.6365V63.0456H48.588V62.4987Z" fill="#2F2E41"/>
<path d="M39.2717 62.4987H36.3202V63.0456H39.2717V62.4987Z" fill="#2F2E41"/>
<path d="M49.9691 124.706L44.9394 88.0643C44.8854 87.6714 44.6907 87.3113 44.3912 87.0506C44.0918 86.7899 43.7078 86.6463 43.3104 86.6463H39.5139C39.5297 86.556 39.5379 86.4645 39.5385 86.3728V85.0056C39.5385 84.5705 39.3653 84.1532 39.0569 83.8455C38.7486 83.5378 38.3304 83.3649 37.8944 83.3649H34.6063C34.1702 83.3649 33.7521 83.5378 33.4438 83.8455C33.1354 84.1532 32.9622 84.5705 32.9622 85.0056V86.3728C32.9628 86.4645 32.971 86.556 32.9868 86.6463H29.1903C28.7929 86.6463 28.4089 86.7899 28.1095 87.0506C27.81 87.3113 27.6153 87.6714 27.5613 88.0643L22.5316 124.706C22.4997 124.938 22.518 125.174 22.5853 125.399C22.6525 125.623 22.7672 125.831 22.9215 126.007C23.0758 126.184 23.2662 126.325 23.4799 126.422C23.6936 126.519 23.9256 126.569 24.1604 126.569H48.3403C48.575 126.569 48.8071 126.519 49.0207 126.422C49.2344 126.325 49.4249 126.184 49.5792 126.007C49.7335 125.831 49.8481 125.623 49.9154 125.399C49.9826 125.174 50.001 124.938 49.9691 124.706Z" fill="#2F2E41"/>
<path d="M42.1416 106.231V88.7114L42.2635 88.6979C44.3479 88.4756 46.4432 89.0067 48.1686 90.1949C49.894 91.3831 51.135 93.1495 51.6663 95.1732L54.7932 103.426L42.1416 106.231Z" fill="#2F2E41"/>
<path d="M35.4187 79.7959L25.7528 76.0519C24.1723 75.4397 22.5829 74.8461 21.0107 74.2128C20.3372 73.9786 19.7168 73.6137 19.1853 73.1392C18.7226 72.6503 18.4072 72.0413 18.2753 71.3818C17.9401 69.9677 18.0007 68.4217 18.0246 66.9786C18.0431 65.4 18.1733 63.8246 18.4142 62.2642C18.8363 59.332 19.8275 56.5102 21.3325 53.9568C24.0432 49.5183 28.7135 46.179 34.0857 46.4455C36.5729 46.5689 39.0743 47.4595 40.9221 49.1564C41.1149 49.3863 41.3312 49.5955 41.5675 49.7806C41.7317 49.842 41.9104 49.854 42.0814 49.815C42.3069 49.8005 42.5326 49.7895 42.7585 49.7819C43.5422 49.7489 44.3273 49.7817 45.1055 49.8801C46.5237 50.033 47.8678 50.59 48.9774 51.4845C49.9008 52.2772 50.6522 53.3964 50.7295 54.64C50.7669 55.211 50.6723 55.7828 50.4531 56.3115C50.2338 56.8401 49.8959 57.3115 49.4652 57.6891C48.312 58.659 46.6667 58.3181 45.2834 58.245L40.2159 57.9771L37.6484 57.8413C37.1197 57.8134 37.1212 58.6338 37.6484 58.6617L44.4726 59.0225C45.5692 59.0804 46.6995 59.2225 47.797 59.1569C48.6403 59.1188 49.4456 58.7955 50.0804 58.2402C50.6602 57.7087 51.092 57.0364 51.3339 56.2887C51.5758 55.541 51.6194 54.7436 51.4605 53.9741C51.1087 52.2958 49.857 50.9075 48.3897 50.0816C46.3933 48.9578 44.0089 48.8501 41.7749 49.0162L42.0655 49.1364C39.5385 46.4298 35.6678 45.287 32.0339 45.6869C28.1971 46.1091 24.7846 48.2452 22.3328 51.1661C19.5991 54.4227 18.1095 58.4834 17.5303 62.659C17.229 64.9134 17.1297 67.1902 17.2339 69.4623C17.2296 70.4643 17.4013 71.4593 17.7414 72.4021C18.1294 73.3197 18.8309 74.0702 19.7212 74.5203C20.7418 75.012 21.7912 75.4422 22.8635 75.8084L26.4246 77.1878L33.4196 79.8973L35.2002 80.587C35.6936 80.7781 35.9074 79.9852 35.4187 79.7959Z" fill="#2F2E41"/>
<path d="M20.2207 51.9186C19.3807 51.9186 18.5595 51.67 17.8611 51.2043C17.1626 50.7386 16.6183 50.0766 16.2968 49.3022C15.9754 48.5277 15.8912 47.6755 16.0551 46.8533C16.219 46.0311 16.6235 45.2759 17.2175 44.6832C17.8115 44.0904 18.5682 43.6868 19.3921 43.5232C20.216 43.3597 21.0699 43.4436 21.846 43.7644C22.6221 44.0852 23.2854 44.6285 23.7521 45.3255C24.2188 46.0225 24.4679 46.8419 24.4679 47.6802C24.4666 48.8039 24.0187 49.8812 23.2225 50.6758C22.4263 51.4704 21.3467 51.9174 20.2207 51.9186ZM20.2207 44.2621C19.5433 44.2621 18.881 44.4626 18.3178 44.8382C17.7545 45.2137 17.3155 45.7476 17.0563 46.3722C16.797 46.9967 16.7292 47.684 16.8614 48.347C16.9935 49.0101 17.3197 49.6191 17.7987 50.0971C18.2778 50.5752 18.8881 50.9007 19.5525 51.0326C20.2169 51.1645 20.9056 51.0968 21.5314 50.8381C22.1573 50.5794 22.6922 50.1413 23.0686 49.5792C23.4449 49.0171 23.6458 48.3562 23.6458 47.6802C23.6448 46.774 23.2836 45.9052 22.6415 45.2644C21.9994 44.6236 21.1288 44.2631 20.2207 44.2621Z" fill="#2F2E41"/>
<path d="M91.2182 78.1845L82.0254 71.1681L74.9945 80.3419L84.1873 87.3583L91.2182 78.1845Z" fill="#F0F0F0"/>
<path d="M39.2645 15.5502C40.717 15.5491 42.1495 15.8874 43.4474 16.538C44.7454 17.1886 45.8726 18.1335 46.7388 19.297L52.1066 12.293L36.0006 0L23.6823 16.0729L30.6239 21.3712C31.3186 19.6519 32.5124 18.179 34.052 17.1418C35.5917 16.1046 37.4069 15.5503 39.2645 15.5502Z" fill="#F0F0F0"/>
<path d="M193.726 152H0.274011C0.201339 152 0.131643 151.971 0.0802558 151.92C0.0288688 151.869 0 151.799 0 151.727C0 151.654 0.0288688 151.585 0.0802558 151.533C0.131643 151.482 0.201339 151.453 0.274011 151.453H193.726C193.799 151.453 193.868 151.482 193.92 151.533C193.971 151.585 194 151.654 194 151.727C194 151.799 193.971 151.869 193.92 151.92C193.868 151.971 193.799 152 193.726 152Z" fill="#3F3D56"/>
<path d="M146.51 106.627H126.819C126.093 106.626 125.396 106.338 124.883 105.825C124.369 105.312 124.08 104.617 124.079 103.892V102.531C124.08 101.806 124.369 101.111 124.883 100.599C125.396 100.086 126.093 99.7976 126.819 99.7968H146.51C147.237 99.7976 147.933 100.086 148.447 100.599C148.961 101.111 149.25 101.806 149.25 102.531V103.892C149.25 104.617 148.961 105.312 148.447 105.825C147.933 106.338 147.237 106.626 146.51 106.627Z" fill="#6C63FF"/>
<path d="M148.585 104.003H128.894C128.131 104.002 127.4 103.699 126.861 103.161C126.321 102.623 126.018 101.893 126.017 101.132V99.7707C126.018 99.0094 126.321 98.2796 126.861 97.7414C127.4 97.2031 128.131 96.9003 128.894 96.8995H148.585C149.348 96.9003 150.079 97.2031 150.619 97.7414C151.158 98.2796 151.461 99.0094 151.462 99.7707V101.132C151.461 101.893 151.158 102.623 150.619 103.161C150.079 103.699 149.348 104.002 148.585 104.003ZM128.894 97.4464C128.277 97.4471 127.685 97.6922 127.248 98.1279C126.811 98.5636 126.566 99.1544 126.565 99.7707V101.132C126.566 101.748 126.811 102.339 127.248 102.775C127.685 103.21 128.277 103.455 128.894 103.456H148.585C149.203 103.455 149.795 103.21 150.231 102.775C150.668 102.339 150.914 101.748 150.914 101.132V99.7707C150.914 99.1544 150.668 98.5636 150.231 98.1279C149.795 97.6922 149.203 97.4471 148.585 97.4464H128.894Z" fill="#EC8932"/>
</g>
<defs>
<clipPath id="clip0_1_263">
<rect width="194" height="152" fill="white"/>
</clipPath>
</defs>
</svg>
