<svg width="179" height="198" viewBox="0 0 179 198" fill="none" xmlns="http://www.w3.org/2000/svg">
<path d="M74.2719 159.222C114.026 159.222 146.253 157.395 146.253 155.142C146.253 152.889 114.026 151.062 74.2719 151.062C34.5176 151.062 2.29041 152.889 2.29041 155.142C2.29041 157.395 34.5176 159.222 74.2719 159.222Z" fill="#475FCB"/>
<path opacity="0.8" d="M74.2719 159.222C114.026 159.222 146.253 157.395 146.253 155.142C146.253 152.889 114.026 151.062 74.2719 151.062C34.5176 151.062 2.29041 152.889 2.29041 155.142C2.29041 157.395 34.5176 159.222 74.2719 159.222Z" fill="white"/>
<path d="M128.363 0H55.9855C50.9886 0 46.9377 3.68551 46.9377 8.23182V147.253C46.9377 151.8 50.9886 155.485 55.9855 155.485H128.363C133.36 155.485 137.41 151.8 137.41 147.253V8.23182C137.41 3.68551 133.36 0 128.363 0Z" fill="#263238"/>
<path d="M133.387 17.0736H50.9564V138.411H133.387V17.0736Z" fill="white" stroke="#263238" stroke-width="1.33739" stroke-miterlimit="10"/>
<path d="M104.808 66.2068C111.786 59.8584 111.786 49.5657 104.808 43.2173C97.8304 36.8689 86.5175 36.8689 79.5399 43.2173C72.5622 49.5657 72.5622 59.8584 79.5399 66.2068C86.5175 72.5552 97.8304 72.5552 104.808 66.2068Z" fill="#475FCB"/>
<path d="M115.632 130.781H68.7212C68.6157 130.782 68.511 130.763 68.4133 130.727C68.3156 130.691 68.2268 130.637 68.1519 130.569C68.077 130.502 68.0176 130.421 67.9771 130.332C67.9365 130.244 67.9157 130.149 67.9157 130.053C67.915 129.956 67.9355 129.861 67.9757 129.771C68.016 129.682 68.0753 129.601 68.1502 129.533C68.2252 129.465 68.3142 129.411 68.4122 129.374C68.5103 129.338 68.6153 129.319 68.7212 129.32H115.632C115.737 129.32 115.842 129.339 115.939 129.375C116.037 129.412 116.125 129.466 116.2 129.535C116.274 129.603 116.333 129.683 116.373 129.772C116.413 129.861 116.433 129.956 116.433 130.053C116.433 130.246 116.348 130.431 116.198 130.568C116.048 130.704 115.844 130.781 115.632 130.781Z" fill="#475FCB"/>
<path d="M117.159 80.1066H67.1893C66.158 80.1066 65.322 80.8672 65.322 81.8055V87.1649C65.322 88.1032 66.158 88.8638 67.1893 88.8638H117.159C118.19 88.8638 119.026 88.1032 119.026 87.1649V81.8055C119.026 80.8672 118.19 80.1066 117.159 80.1066Z" fill="#EC8932"/>
<path d="M117.159 96.4855H67.1893C66.158 96.4855 65.322 97.2461 65.322 98.1844V103.544C65.322 104.482 66.158 105.243 67.1893 105.243H117.159C118.19 105.243 119.026 104.482 119.026 103.544V98.1844C119.026 97.2461 118.19 96.4855 117.159 96.4855Z" fill="#475FCB"/>
<path d="M101.07 62.821L95.8132 60.0672V57.7921C96.5744 56.9542 97.1258 55.9754 97.429 54.9239C97.61 54.9824 97.8005 55.0125 97.9925 55.0129C98.6444 55.0129 99.0588 53.1742 99.1287 51.8608C99.8877 50.3992 98.8539 49.5434 98.8539 49.5434C98.8539 49.5434 99.2824 49.1536 99.5664 47.5903C99.8505 46.0269 98.5652 46.6794 97.5641 45.2474C96.5629 43.8154 95.8458 42.2563 92.5582 42.2563C91.6524 42.2292 90.7585 42.4507 89.9928 42.8919C89.2271 43.3332 88.6251 43.9738 88.2649 44.7305C87.4465 44.7332 86.6311 44.8199 85.8341 44.989C84.8283 45.2474 84.5443 48.2427 85.4011 49.4163C85.7846 50.0576 85.9893 50.7748 85.9971 51.5049C85.7689 51.2507 85.5315 51.1829 85.4011 51.7591C85.117 53.0598 86.2625 54.8815 86.2625 54.8815L86.8539 54.729C87.1519 55.8528 87.7267 56.9002 88.535 57.7921V60.0672L83.2777 62.821C82.6637 63.1435 82.1538 63.6073 81.7991 64.1657C81.4443 64.7242 81.2573 65.3577 81.2567 66.0027V67.5788C84.3835 69.7764 88.223 70.9686 92.1741 70.9686C96.1252 70.9686 99.9647 69.7764 103.091 67.5788V66.0027C103.092 65.3576 102.905 64.7237 102.55 64.1651C102.196 63.6065 101.685 63.1429 101.07 62.821Z" fill="#263238"/>
<path d="M72.1252 103.065C72.0047 103.063 71.8895 103.019 71.8039 102.942C71.7581 102.905 71.7215 102.859 71.6966 102.808C71.6718 102.757 71.6591 102.701 71.6596 102.646C71.661 102.569 71.6851 102.494 71.7294 102.429L72.5676 101.209L70.9331 101.256C70.8716 101.259 70.8098 101.251 70.7521 101.231C70.6943 101.212 70.6417 101.181 70.5979 101.142C70.5219 101.064 70.48 100.964 70.48 100.86C70.48 100.756 70.5219 100.656 70.5979 100.578C70.6408 100.537 70.693 100.505 70.751 100.485C70.8089 100.464 70.8711 100.456 70.9331 100.459L72.5443 100.515L71.7154 99.2986C71.6704 99.2324 71.6462 99.1562 71.6456 99.0783C71.6451 99.0224 71.6578 98.967 71.6827 98.9159C71.7076 98.8647 71.7441 98.819 71.7899 98.7817C71.8755 98.7045 71.9907 98.6604 72.1113 98.6589C72.1906 98.6593 72.2682 98.6803 72.3349 98.7193C72.4017 98.7583 72.4549 98.8137 72.4884 98.8792L73.2847 100.188L74.0717 98.8876C74.109 98.8182 74.1665 98.7595 74.2379 98.7176C74.3093 98.6758 74.3919 98.6526 74.4768 98.6504C74.5357 98.6507 74.5938 98.6622 74.6475 98.684C74.7012 98.7059 74.7493 98.7378 74.7888 98.7775C74.8743 98.8581 74.9211 98.9663 74.9192 99.0783C74.9189 99.1511 74.8981 99.2226 74.8586 99.2859L74.0158 100.515L75.6503 100.459C75.7123 100.456 75.7745 100.464 75.8324 100.485C75.8904 100.505 75.9426 100.537 75.9855 100.578C76.0649 100.653 76.1084 100.754 76.1066 100.858C76.1063 100.963 76.0632 101.064 75.9855 101.142C75.9417 101.181 75.8891 101.212 75.8313 101.231C75.7736 101.251 75.7119 101.259 75.6503 101.256L74.0065 101.209L74.826 102.417C74.872 102.484 74.8962 102.562 74.8959 102.641C74.8959 102.754 74.8468 102.861 74.7595 102.941C74.6722 103.02 74.5537 103.065 74.4302 103.065C74.3504 103.064 74.2726 103.042 74.2064 103.001C74.1402 102.961 74.0886 102.903 74.0577 102.836L73.2801 101.565L72.5071 102.836C72.4728 102.903 72.419 102.959 72.3516 103C72.2842 103.04 72.2059 103.063 72.1252 103.065Z" fill="#263238"/>
<path d="M79.6782 103.065C79.5577 103.063 79.4425 103.019 79.3569 102.942C79.3111 102.905 79.2745 102.859 79.2496 102.808C79.2248 102.757 79.2121 102.701 79.2126 102.646C79.214 102.569 79.2381 102.494 79.2824 102.429L80.1206 101.209L78.4908 101.256C78.4286 101.259 78.3665 101.25 78.3081 101.23C78.2497 101.21 78.1962 101.18 78.1509 101.142C78.089 101.084 78.0479 101.01 78.0327 100.93C78.0174 100.851 78.0289 100.769 78.0656 100.695C78.1023 100.622 78.1624 100.56 78.2383 100.518C78.3141 100.476 78.4021 100.455 78.4908 100.459L80.0973 100.515L79.2684 99.2986C79.2233 99.2324 79.1992 99.1562 79.1986 99.0783C79.1981 99.0224 79.2108 98.967 79.2357 98.9159C79.2606 98.8647 79.2971 98.819 79.3429 98.7817C79.4285 98.7045 79.5437 98.6604 79.6642 98.6589C79.7436 98.6593 79.8212 98.6803 79.8879 98.7193C79.9547 98.7583 80.0079 98.8137 80.0414 98.8792L80.8377 100.188L81.6247 98.8876C81.662 98.8182 81.7195 98.7595 81.7909 98.7177C81.8623 98.6758 81.9449 98.6526 82.0298 98.6504C82.0887 98.6502 82.1471 98.6614 82.2009 98.6833C82.2547 98.7052 82.3027 98.7373 82.3418 98.7775C82.3849 98.8171 82.4191 98.864 82.4423 98.9157C82.4654 98.9673 82.4772 99.0225 82.4768 99.0783C82.4752 99.1515 82.4527 99.223 82.4116 99.2859L81.5688 100.515L83.2079 100.468C83.2692 100.464 83.3307 100.473 83.3879 100.493C83.4451 100.514 83.4965 100.546 83.5385 100.587C83.6179 100.662 83.6614 100.762 83.6596 100.866C83.6593 100.971 83.6162 101.072 83.5385 101.15C83.4955 101.189 83.4438 101.22 83.3868 101.24C83.3298 101.259 83.2688 101.268 83.2079 101.264L81.5595 101.218L82.379 102.425C82.425 102.493 82.4492 102.57 82.4489 102.65C82.4489 102.762 82.3998 102.87 82.3125 102.949C82.2252 103.029 82.1067 103.073 81.9832 103.073C81.9034 103.072 81.8256 103.05 81.7594 103.01C81.6932 102.969 81.6415 102.912 81.6107 102.845L80.833 101.574L80.0601 102.845C80.0245 102.91 79.9701 102.964 79.9028 103.003C79.8355 103.042 79.7579 103.063 79.6782 103.065Z" fill="#263238"/>
<path d="M87.2358 103.065C87.1137 103.065 86.9966 103.02 86.9099 102.942C86.8641 102.905 86.8275 102.859 86.8026 102.808C86.7777 102.757 86.7651 102.701 86.7655 102.646C86.767 102.569 86.7911 102.494 86.8354 102.429L87.6736 101.209L86.0438 101.256C85.956 101.259 85.8692 101.238 85.7944 101.197C85.7195 101.155 85.6601 101.094 85.6237 101.021C85.5872 100.948 85.5753 100.867 85.5896 100.788C85.6039 100.709 85.6437 100.636 85.7038 100.578C85.7478 100.537 85.8009 100.506 85.8596 100.485C85.9182 100.465 85.9811 100.456 86.0438 100.459L87.6503 100.515L86.8214 99.2986C86.7763 99.2324 86.7521 99.1562 86.7516 99.0783C86.753 99.0227 86.7665 98.9678 86.7913 98.917C86.8161 98.8661 86.8516 98.8201 86.8959 98.7817C86.9826 98.7035 87.0997 98.6593 87.2219 98.6589C87.3004 98.6601 87.377 98.6815 87.4429 98.7204C87.5087 98.7594 87.5612 98.8144 87.5944 98.8792L88.3907 100.188L89.1776 98.8876C89.215 98.8182 89.2724 98.7595 89.3439 98.7177C89.4153 98.6758 89.4979 98.6526 89.5828 98.6504C89.6417 98.6502 89.7 98.6614 89.7538 98.6833C89.8076 98.7052 89.8557 98.7373 89.8948 98.7775C89.9379 98.8171 89.9721 98.864 89.9952 98.9157C90.0184 98.9673 90.0301 99.0225 90.0298 99.0783C90.0281 99.1515 90.0057 99.223 89.9646 99.2859L89.1218 100.515L90.7609 100.459C90.8211 100.454 90.882 100.46 90.9393 100.478C90.9967 100.496 91.0492 100.524 91.0933 100.562C91.1375 100.6 91.1722 100.646 91.1952 100.697C91.2181 100.748 91.2288 100.803 91.2265 100.858C91.2275 100.962 91.1861 101.063 91.1101 101.142C91.0663 101.181 91.0137 101.212 90.9559 101.231C90.8981 101.251 90.8364 101.259 90.7748 101.256L89.1311 101.209L89.946 102.417C89.9919 102.484 90.0161 102.562 90.0158 102.641C90.0143 102.697 90.0008 102.752 89.9761 102.803C89.9513 102.854 89.9158 102.9 89.8715 102.938C89.831 102.978 89.782 103.009 89.7275 103.031C89.6731 103.053 89.6143 103.065 89.5548 103.065C89.4756 103.064 89.3986 103.041 89.3332 103.001C89.2678 102.96 89.217 102.903 89.187 102.836L88.4046 101.565L87.6317 102.836C87.5968 102.905 87.5409 102.963 87.4707 103.004C87.4005 103.044 87.319 103.065 87.2358 103.065Z" fill="#263238"/>
<path d="M94.7888 103.065C94.6667 103.065 94.5496 103.02 94.4629 102.942C94.3751 102.864 94.3249 102.757 94.3232 102.646C94.3217 102.569 94.3443 102.494 94.3884 102.429L95.2265 101.209L93.5967 101.256C93.5345 101.259 93.4724 101.25 93.414 101.23C93.3556 101.21 93.3022 101.18 93.2568 101.142C93.1809 101.064 93.1389 100.964 93.1389 100.86C93.1389 100.756 93.1809 100.656 93.2568 100.578C93.3018 100.539 93.3551 100.508 93.4135 100.487C93.4719 100.467 93.5342 100.457 93.5967 100.459L95.2079 100.515L94.3837 99.2986C94.3386 99.2324 94.3144 99.1562 94.3138 99.0783C94.3153 99.0227 94.3288 98.9678 94.3536 98.917C94.3784 98.8661 94.4139 98.8201 94.4582 98.7817C94.5449 98.7035 94.662 98.6593 94.7842 98.6589C94.8635 98.6593 94.9411 98.6803 95.0078 98.7193C95.0746 98.7583 95.1278 98.8137 95.1613 98.8792L95.953 100.188L96.7399 98.8876C96.7773 98.8182 96.8347 98.7595 96.9061 98.7177C96.9776 98.6758 97.0602 98.6526 97.145 98.6504C97.204 98.6502 97.2623 98.6614 97.3161 98.6833C97.3699 98.7052 97.418 98.7373 97.457 98.7775C97.5002 98.8171 97.5343 98.864 97.5575 98.9157C97.5807 98.9673 97.5924 99.0225 97.5921 99.0783C97.5904 99.1515 97.568 99.223 97.5269 99.2859L96.684 100.515L98.3232 100.459C98.3834 100.454 98.4443 100.46 98.5016 100.478C98.559 100.496 98.6115 100.524 98.6556 100.562C98.6997 100.6 98.7345 100.646 98.7574 100.697C98.7804 100.748 98.7911 100.803 98.7888 100.858C98.7898 100.962 98.7483 101.063 98.6724 101.142C98.6285 101.181 98.576 101.212 98.5182 101.231C98.4604 101.251 98.3987 101.259 98.3371 101.256L96.6934 101.209L97.5083 102.417C97.5542 102.484 97.5784 102.562 97.5781 102.641C97.5786 102.697 97.5659 102.753 97.541 102.804C97.5161 102.855 97.4796 102.901 97.4337 102.938C97.3932 102.978 97.3443 103.009 97.2898 103.031C97.2354 103.053 97.1766 103.065 97.1171 103.065C97.0379 103.064 96.9609 103.041 96.8955 103.001C96.8301 102.96 96.7793 102.903 96.7492 102.836L95.9669 101.565L95.1939 102.836C95.1584 102.906 95.1011 102.965 95.0291 103.006C94.9571 103.047 94.8735 103.067 94.7888 103.065Z" fill="#263238"/>
<path d="M102.342 103.065C102.22 103.065 102.103 103.02 102.016 102.942C101.944 102.876 101.898 102.789 101.885 102.697C101.872 102.604 101.894 102.51 101.946 102.429L102.78 101.209L101.15 101.256C101.088 101.259 101.025 101.25 100.967 101.23C100.909 101.21 100.855 101.18 100.81 101.142C100.734 101.064 100.692 100.964 100.692 100.86C100.692 100.756 100.734 100.656 100.81 100.578C100.855 100.539 100.908 100.508 100.966 100.487C101.025 100.467 101.087 100.457 101.15 100.459L102.761 100.515L101.932 99.2986C101.887 99.2324 101.863 99.1562 101.862 99.0783C101.864 98.9666 101.914 98.86 102.002 98.7817C102.089 98.7035 102.206 98.6593 102.328 98.6589C102.407 98.6593 102.485 98.6803 102.552 98.7193C102.618 98.7583 102.672 98.8137 102.705 98.8792L103.497 100.188L104.284 98.8876C104.321 98.8183 104.378 98.7595 104.45 98.7177C104.521 98.6758 104.604 98.6526 104.689 98.6504C104.748 98.6501 104.807 98.6613 104.862 98.6832C104.917 98.7051 104.965 98.7372 105.005 98.7775C105.091 98.8581 105.138 98.9663 105.136 99.0783C105.134 99.1515 105.112 99.223 105.071 99.2859L104.228 100.515L105.867 100.459C105.927 100.454 105.988 100.46 106.045 100.478C106.103 100.496 106.155 100.524 106.199 100.562C106.243 100.6 106.278 100.646 106.301 100.697C106.324 100.748 106.335 100.803 106.332 100.858C106.333 100.962 106.292 101.063 106.216 101.142C106.172 101.181 106.12 101.212 106.062 101.231C106.004 101.251 105.942 101.259 105.881 101.256L104.237 101.209L105.052 102.417C105.098 102.484 105.122 102.562 105.122 102.641C105.122 102.697 105.11 102.753 105.085 102.804C105.06 102.855 105.023 102.901 104.977 102.938C104.937 102.978 104.888 103.009 104.833 103.031C104.779 103.053 104.72 103.065 104.661 103.065C104.582 103.064 104.505 103.041 104.439 103.001C104.374 102.96 104.323 102.903 104.293 102.836L103.511 101.565L102.738 102.836C102.703 102.905 102.647 102.963 102.577 103.004C102.506 103.044 102.425 103.065 102.342 103.065Z" fill="#263238"/>
<path d="M109.895 103.065C109.774 103.063 109.659 103.019 109.573 102.942C109.528 102.905 109.491 102.859 109.466 102.808C109.441 102.757 109.429 102.701 109.429 102.646C109.43 102.569 109.455 102.494 109.499 102.429L110.332 101.209L108.703 101.256C108.643 101.26 108.582 101.253 108.526 101.235C108.469 101.216 108.417 101.188 108.373 101.15C108.33 101.113 108.295 101.067 108.271 101.017C108.248 100.967 108.236 100.912 108.237 100.858C108.237 100.806 108.248 100.754 108.269 100.706C108.291 100.658 108.323 100.615 108.363 100.578C108.406 100.537 108.458 100.505 108.516 100.485C108.574 100.464 108.636 100.456 108.698 100.459L110.309 100.515L109.48 99.2986C109.435 99.2324 109.411 99.1562 109.41 99.0783C109.412 98.9666 109.462 98.86 109.55 98.7817C109.637 98.7035 109.754 98.6593 109.876 98.6589C109.955 98.6593 110.033 98.6803 110.1 98.7193C110.167 98.7583 110.22 98.8137 110.253 98.8792L111.045 100.188L111.837 98.8876C111.873 98.8189 111.93 98.7605 112.001 98.7187C112.071 98.677 112.153 98.6533 112.237 98.6504C112.297 98.6501 112.356 98.6613 112.41 98.6832C112.465 98.7051 112.514 98.7372 112.554 98.7775C112.639 98.8581 112.686 98.9663 112.684 99.0783C112.684 99.1511 112.663 99.2226 112.623 99.2859L111.781 100.515L113.415 100.459C113.477 100.456 113.539 100.464 113.597 100.485C113.655 100.505 113.707 100.537 113.75 100.578C113.83 100.653 113.873 100.754 113.871 100.858C113.871 100.963 113.828 101.064 113.75 101.142C113.707 101.181 113.654 101.212 113.596 101.231C113.538 101.251 113.477 101.259 113.415 101.256L111.771 101.209L112.586 102.417C112.632 102.484 112.656 102.562 112.656 102.641C112.654 102.753 112.604 102.86 112.516 102.938C112.432 103.017 112.316 103.062 112.195 103.065C112.116 103.064 112.039 103.041 111.973 103.001C111.908 102.96 111.857 102.903 111.827 102.836L111.045 101.565L110.272 102.836C110.238 102.902 110.185 102.959 110.119 102.999C110.052 103.039 109.975 103.062 109.895 103.065Z" fill="#263238"/>
<g style="mix-blend-mode:multiply">
<path d="M133.387 17.2346H50.9564V21.933H133.387V17.2346Z" fill="#475FCB"/>
</g>
<path d="M101.136 8.57912H83.2079C82.8844 8.57912 82.5741 8.46217 82.3453 8.25401C82.1165 8.04584 81.9879 7.76351 81.9879 7.46912C81.9879 7.17473 82.1165 6.89239 82.3453 6.68423C82.5741 6.47606 82.8844 6.35912 83.2079 6.35912H101.136C101.459 6.35912 101.77 6.47606 101.998 6.68423C102.227 6.89239 102.356 7.17473 102.356 7.46912C102.356 7.76351 102.227 8.04584 101.998 8.25401C101.77 8.46217 101.459 8.57912 101.136 8.57912Z" fill="#475FCB" stroke="#263238" stroke-width="1.33739" stroke-linecap="round" stroke-linejoin="round"/>
<path d="M97.0612 145.266C97.0621 144.386 96.776 143.525 96.2391 142.793C95.7022 142.061 94.9386 141.49 94.045 141.153C93.1514 140.816 92.1679 140.727 91.219 140.899C90.2701 141.07 89.3985 141.494 88.7144 142.117C88.0303 142.739 87.5646 143.532 87.3761 144.395C87.1876 145.259 87.2848 146.153 87.6554 146.966C88.0261 147.779 88.6535 148.474 89.4582 148.963C90.263 149.451 91.209 149.711 92.1764 149.711C93.4716 149.709 94.7133 149.241 95.6291 148.408C96.5449 147.574 97.0599 146.445 97.0612 145.266Z" fill="#475FCB"/>
<path d="M94.6538 143.012H89.6992V147.52H94.6538V143.012Z" fill="#EC8932" stroke="#263238" stroke-width="1.33739" stroke-linecap="round" stroke-linejoin="round"/>
<path d="M151.194 94.113C151.194 94.113 144.703 79.1067 150.482 77.3231C156.498 75.4632 156.232 85.3727 156 90.2025C155.511 100.523 154.258 102.442 153.322 99.9214L151.194 94.113ZM149.243 105.819C151.026 107.937 151.529 105.743 148.312 95.833C146.803 91.1727 143.525 81.7462 138.496 85.2838C133.667 88.6731 145.159 100.959 145.159 100.959L149.243 105.819ZM145.797 114.419C147.497 115.792 147.529 114.059 143.492 106.903C141.597 103.552 137.587 96.7693 134.305 100.125C131.152 103.362 141.895 111.229 141.895 111.229L145.797 114.419ZM142.072 124.647C143.771 126.023 143.804 124.286 139.767 117.135C137.872 113.784 133.862 106.997 130.579 110.356C127.445 113.602 138.156 121.469 138.156 121.469L142.072 124.647ZM152.828 103.828C150.109 104.794 152.27 105.844 163.627 105.815C168.954 105.815 179.832 105.594 177.513 100.21C175.292 95.0365 159.115 101.625 159.115 101.625L152.828 103.828ZM149.732 110.708C146.854 111.161 148.745 112.585 159.883 114.61C165.103 115.563 175.809 117.321 174.714 111.644C173.667 106.17 156.372 109.704 156.372 109.704L149.732 110.708ZM146.267 119.109C143.818 119.431 145.383 120.673 154.747 122.621C159.138 123.537 168.149 125.252 167.366 120.41C166.621 115.75 151.906 118.385 151.906 118.385L146.267 119.109ZM143.636 126.892C141.238 127.447 142.938 128.532 152.484 129.565C156.954 130.048 166.114 130.887 164.777 126.146C163.487 121.596 149.164 125.625 149.164 125.625L143.636 126.892ZM157.671 95.3839C156.274 98.231 159.175 97.7988 169.038 89.9695C173.657 86.2963 182.924 78.611 175.585 74.7853C168.54 71.1079 160.964 88.851 160.964 88.851L157.671 95.3839ZM144 137.03C142.523 137.814 143.972 138.119 150.742 136.89C153.918 136.318 160.377 135.047 158.193 132.539C156.079 130.125 147.418 135.208 147.418 135.208L144 137.03Z" fill="#475FCB"/>
<path opacity="0.3" d="M151.194 94.113C151.194 94.113 144.703 79.1067 150.482 77.3231C156.498 75.4632 156.232 85.3727 156 90.2025C155.511 100.523 154.258 102.442 153.322 99.9214L151.194 94.113ZM149.243 105.819C151.026 107.937 151.529 105.743 148.312 95.833C146.803 91.1727 143.525 81.7462 138.496 85.2838C133.667 88.6731 145.159 100.959 145.159 100.959L149.243 105.819ZM145.797 114.419C147.497 115.792 147.529 114.059 143.492 106.903C141.597 103.552 137.587 96.7693 134.305 100.125C131.152 103.362 141.895 111.229 141.895 111.229L145.797 114.419ZM142.072 124.647C143.771 126.023 143.804 124.286 139.767 117.135C137.872 113.784 133.862 106.997 130.579 110.356C127.445 113.602 138.156 121.469 138.156 121.469L142.072 124.647ZM152.828 103.828C150.109 104.794 152.27 105.844 163.627 105.815C168.954 105.815 179.832 105.594 177.513 100.21C175.292 95.0365 159.115 101.625 159.115 101.625L152.828 103.828ZM149.732 110.708C146.854 111.161 148.745 112.585 159.883 114.61C165.103 115.563 175.809 117.321 174.714 111.644C173.667 106.17 156.372 109.704 156.372 109.704L149.732 110.708ZM146.267 119.109C143.818 119.431 145.383 120.673 154.747 122.621C159.138 123.537 168.149 125.252 167.366 120.41C166.621 115.75 151.906 118.385 151.906 118.385L146.267 119.109ZM143.636 126.892C141.238 127.447 142.938 128.532 152.484 129.565C156.954 130.048 166.114 130.887 164.777 126.146C163.487 121.596 149.164 125.625 149.164 125.625L143.636 126.892ZM157.671 95.3839C156.274 98.231 159.175 97.7988 169.038 89.9695C173.657 86.2963 182.924 78.611 175.585 74.7853C168.54 71.1079 160.964 88.851 160.964 88.851L157.671 95.3839ZM144 137.03C142.523 137.814 143.972 138.119 150.742 136.89C153.918 136.318 160.377 135.047 158.193 132.539C156.079 130.125 147.418 135.208 147.418 135.208L144 137.03Z" fill="white"/>
<path d="M154.058 101.099L152.926 83.9704L154.058 101.099ZM150.477 106.751L143.324 92.0201L150.477 106.751ZM168.936 102.468L151.795 104.705L168.936 102.468ZM146.77 114.69L137.49 103.857L146.77 114.69ZM148.4 111.369L161.187 111.954L148.4 111.369ZM145.373 119.677L155.152 120.558L145.373 119.677ZM143.012 124.956L138.156 118.308L143.012 124.956ZM142.454 127.303L153.951 127.4L142.454 127.303ZM140.125 146.927C140.202 146.922 140.274 146.889 140.324 146.836C140.375 146.783 140.4 146.713 140.395 146.643C139.664 136.653 143.911 120.291 150.724 106.861C155.078 98.2776 172.144 81.4073 172.326 81.2378C172.38 81.1877 172.411 81.1199 172.411 81.0493C172.411 80.9786 172.38 80.9108 172.326 80.8607C172.299 80.8361 172.267 80.8166 172.232 80.8033C172.196 80.79 172.159 80.7831 172.121 80.7831C172.083 80.7831 172.045 80.79 172.01 80.8033C171.974 80.8166 171.943 80.8361 171.916 80.8607C171.743 81.0302 154.607 97.9641 150.216 106.624C143.278 120.38 139.087 136.446 139.832 146.677C139.838 146.745 139.871 146.808 139.925 146.854C139.98 146.9 140.051 146.926 140.125 146.927ZM154.053 101.362C154.13 101.358 154.202 101.326 154.254 101.273C154.305 101.221 154.332 101.152 154.328 101.082L153.215 83.945C153.213 83.9101 153.204 83.8759 153.187 83.8444C153.171 83.8128 153.148 83.7846 153.119 83.7613C153.09 83.738 153.057 83.7202 153.021 83.7088C152.984 83.6974 152.946 83.6928 152.908 83.695C152.831 83.6994 152.759 83.7312 152.707 83.7835C152.656 83.8359 152.629 83.9046 152.633 83.9747L153.764 101.103C153.768 101.171 153.8 101.234 153.854 101.281C153.907 101.328 153.979 101.353 154.053 101.353V101.362ZM150.579 106.992C150.649 106.964 150.704 106.911 150.732 106.846C150.759 106.781 150.758 106.709 150.728 106.645L143.571 91.9142C143.54 91.8501 143.483 91.7998 143.411 91.7744C143.339 91.749 143.26 91.7505 143.189 91.7786C143.119 91.8067 143.064 91.8591 143.036 91.9242C143.008 91.9894 143.009 92.0619 143.04 92.126L150.193 106.857C150.215 106.904 150.252 106.944 150.299 106.973C150.346 107.002 150.402 107.017 150.458 107.018C150.506 107.02 150.554 107.011 150.598 106.992H150.579ZM151.818 104.959L168.95 102.73C168.991 102.73 169.032 102.721 169.069 102.705C169.106 102.689 169.14 102.665 169.166 102.637C169.193 102.608 169.213 102.575 169.225 102.539C169.237 102.502 169.24 102.465 169.234 102.427C169.228 102.39 169.214 102.354 169.192 102.322C169.17 102.29 169.141 102.263 169.107 102.242C169.073 102.221 169.034 102.207 168.993 102.2C168.952 102.194 168.91 102.196 168.87 102.205L151.739 104.433C151.662 104.438 151.591 104.47 151.54 104.522C151.489 104.575 151.464 104.643 151.469 104.713C151.474 104.783 151.509 104.848 151.566 104.894C151.624 104.94 151.699 104.963 151.776 104.959H151.818ZM146.933 114.902C146.994 114.859 147.034 114.795 147.043 114.725C147.053 114.656 147.032 114.585 146.984 114.529L137.699 103.675C137.652 103.619 137.581 103.582 137.504 103.573C137.427 103.564 137.349 103.583 137.287 103.626C137.225 103.67 137.185 103.733 137.175 103.804C137.165 103.874 137.186 103.945 137.234 104.001L146.537 114.873C146.564 114.904 146.599 114.93 146.639 114.947C146.678 114.965 146.722 114.974 146.766 114.974C146.835 114.971 146.901 114.946 146.952 114.902H146.933ZM161.443 111.966C161.446 111.896 161.418 111.828 161.365 111.776C161.313 111.725 161.241 111.694 161.164 111.691L148.4 111.102C148.328 111.106 148.261 111.135 148.211 111.181C148.16 111.228 148.131 111.29 148.127 111.355C148.124 111.421 148.147 111.485 148.192 111.536C148.237 111.587 148.301 111.621 148.372 111.632L161.159 112.22C161.236 112.223 161.311 112.197 161.368 112.15C161.424 112.102 161.458 112.036 161.462 111.966H161.443ZM155.422 120.584C155.427 120.549 155.423 120.513 155.413 120.48C155.402 120.446 155.384 120.415 155.36 120.387C155.335 120.36 155.305 120.338 155.271 120.321C155.237 120.305 155.2 120.294 155.161 120.291L145.383 119.414C145.345 119.411 145.306 119.414 145.27 119.424C145.233 119.434 145.199 119.451 145.17 119.473C145.14 119.495 145.116 119.522 145.098 119.553C145.08 119.583 145.069 119.617 145.066 119.652C145.059 119.721 145.083 119.79 145.132 119.844C145.18 119.898 145.25 119.932 145.327 119.94L155.105 120.821H155.133C155.209 120.826 155.283 120.803 155.34 120.759C155.398 120.715 155.434 120.652 155.441 120.584H155.422ZM143.152 125.176C143.217 125.137 143.262 125.077 143.278 125.008C143.293 124.938 143.278 124.867 143.236 124.808L138.402 118.16C138.358 118.103 138.291 118.063 138.216 118.05C138.14 118.037 138.062 118.05 137.997 118.088C137.933 118.127 137.887 118.188 137.872 118.257C137.856 118.326 137.871 118.398 137.913 118.457L142.747 125.104C142.775 125.14 142.811 125.17 142.854 125.191C142.897 125.211 142.945 125.222 142.994 125.223C143.057 125.226 143.119 125.209 143.171 125.176H143.152ZM154.244 127.4C154.243 127.331 154.212 127.264 154.158 127.214C154.105 127.165 154.032 127.136 153.955 127.133L142.458 127.036C142.382 127.036 142.308 127.064 142.254 127.113C142.2 127.162 142.169 127.229 142.169 127.299C142.168 127.334 142.175 127.369 142.189 127.401C142.203 127.434 142.224 127.464 142.251 127.488C142.278 127.513 142.31 127.533 142.346 127.546C142.381 127.56 142.42 127.566 142.458 127.566L153.955 127.663C153.995 127.665 154.034 127.659 154.071 127.647C154.108 127.634 154.141 127.615 154.17 127.591C154.199 127.566 154.222 127.537 154.238 127.504C154.254 127.471 154.262 127.436 154.263 127.4H154.244ZM138.817 143.042C138.84 142.995 140.8 138.081 146.696 136.907C146.772 136.892 146.838 136.85 146.88 136.791C146.922 136.731 146.936 136.659 146.919 136.59C146.9 136.522 146.854 136.463 146.789 136.426C146.723 136.389 146.645 136.376 146.57 136.391C140.353 137.628 138.291 142.818 138.267 142.868C138.243 142.935 138.249 143.008 138.283 143.071C138.317 143.135 138.376 143.183 138.449 143.207H138.542C138.604 143.212 138.666 143.199 138.719 143.169C138.772 143.139 138.813 143.095 138.835 143.042H138.817ZM140.125 146.927C140.202 146.922 140.274 146.889 140.324 146.836C140.375 146.783 140.4 146.713 140.395 146.643C139.664 136.653 143.911 120.291 150.724 106.861C155.078 98.2776 172.144 81.4073 172.326 81.2378C172.38 81.1877 172.411 81.1199 172.411 81.0493C172.411 80.9786 172.38 80.9108 172.326 80.8607C172.299 80.8361 172.267 80.8166 172.232 80.8033C172.196 80.79 172.159 80.7831 172.121 80.7831C172.083 80.7831 172.045 80.79 172.01 80.8033C171.974 80.8166 171.943 80.8361 171.916 80.8607C171.743 81.0302 154.607 97.9641 150.216 106.624C143.278 120.38 139.087 136.446 139.832 146.677C139.838 146.745 139.871 146.808 139.925 146.854C139.98 146.9 140.051 146.926 140.125 146.927ZM154.053 101.362C154.13 101.358 154.202 101.326 154.254 101.273C154.305 101.221 154.332 101.152 154.328 101.082L153.215 83.945C153.213 83.9101 153.204 83.8759 153.187 83.8444C153.171 83.8128 153.148 83.7846 153.119 83.7613C153.09 83.738 153.057 83.7202 153.021 83.7088C152.984 83.6974 152.946 83.6928 152.908 83.695C152.831 83.6994 152.759 83.7312 152.707 83.7835C152.656 83.8359 152.629 83.9046 152.633 83.9747L153.764 101.103C153.768 101.171 153.8 101.234 153.854 101.281C153.907 101.328 153.979 101.353 154.053 101.353V101.362ZM150.579 106.992C150.649 106.964 150.704 106.911 150.732 106.846C150.759 106.781 150.758 106.709 150.728 106.645L143.571 91.9142C143.54 91.8501 143.483 91.7998 143.411 91.7744C143.339 91.749 143.26 91.7505 143.189 91.7786C143.119 91.8067 143.064 91.8591 143.036 91.9242C143.008 91.9894 143.009 92.0619 143.04 92.126L150.193 106.857C150.215 106.904 150.252 106.944 150.299 106.973C150.346 107.002 150.402 107.017 150.458 107.018C150.506 107.02 150.554 107.011 150.598 106.992H150.579ZM151.818 104.959L168.95 102.73C168.991 102.73 169.032 102.721 169.069 102.705C169.106 102.689 169.14 102.665 169.166 102.637C169.193 102.608 169.213 102.575 169.225 102.539C169.237 102.502 169.24 102.465 169.234 102.427C169.228 102.39 169.214 102.354 169.192 102.322C169.17 102.29 169.141 102.263 169.107 102.242C169.073 102.221 169.034 102.207 168.993 102.2C168.952 102.194 168.91 102.196 168.87 102.205L151.739 104.433C151.662 104.438 151.591 104.47 151.54 104.522C151.489 104.575 151.464 104.643 151.469 104.713C151.474 104.783 151.509 104.848 151.566 104.894C151.624 104.94 151.699 104.963 151.776 104.959H151.818ZM146.933 114.902C146.994 114.859 147.034 114.795 147.043 114.725C147.053 114.656 147.032 114.585 146.984 114.529L137.699 103.675C137.676 103.647 137.646 103.624 137.613 103.606C137.579 103.589 137.542 103.578 137.504 103.573C137.466 103.569 137.427 103.571 137.39 103.58C137.353 103.589 137.318 103.605 137.287 103.626C137.256 103.648 137.231 103.674 137.212 103.705C137.192 103.735 137.18 103.769 137.175 103.804C137.17 103.839 137.173 103.874 137.183 103.908C137.193 103.942 137.21 103.974 137.234 104.001L146.537 114.873C146.564 114.904 146.599 114.93 146.639 114.947C146.678 114.965 146.722 114.974 146.766 114.974C146.835 114.971 146.901 114.946 146.952 114.902H146.933ZM161.443 111.966C161.446 111.896 161.418 111.828 161.365 111.776C161.313 111.725 161.241 111.694 161.164 111.691L148.4 111.102C148.328 111.106 148.261 111.135 148.211 111.181C148.16 111.228 148.131 111.29 148.127 111.355C148.124 111.421 148.147 111.485 148.192 111.536C148.237 111.587 148.301 111.621 148.372 111.632L161.159 112.22C161.236 112.223 161.311 112.197 161.368 112.15C161.424 112.102 161.458 112.036 161.462 111.966H161.443ZM155.422 120.584C155.427 120.549 155.423 120.513 155.413 120.48C155.402 120.446 155.384 120.415 155.36 120.387C155.335 120.36 155.305 120.338 155.271 120.321C155.237 120.305 155.2 120.294 155.161 120.291L145.383 119.414C145.345 119.411 145.306 119.414 145.27 119.424C145.233 119.434 145.199 119.451 145.17 119.473C145.14 119.495 145.116 119.522 145.098 119.553C145.08 119.583 145.069 119.617 145.066 119.652C145.059 119.721 145.083 119.79 145.132 119.844C145.18 119.898 145.25 119.932 145.327 119.94L155.105 120.821H155.133C155.209 120.826 155.283 120.803 155.34 120.759C155.398 120.715 155.434 120.652 155.441 120.584H155.422ZM143.152 125.176C143.217 125.137 143.262 125.077 143.278 125.008C143.293 124.938 143.278 124.867 143.236 124.808L138.402 118.16C138.358 118.103 138.291 118.063 138.216 118.05C138.14 118.037 138.062 118.05 137.997 118.088C137.933 118.127 137.887 118.188 137.872 118.257C137.856 118.326 137.871 118.398 137.913 118.457L142.747 125.104C142.775 125.14 142.811 125.17 142.854 125.191C142.897 125.211 142.945 125.222 142.994 125.223C143.057 125.226 143.119 125.209 143.171 125.176H143.152ZM154.244 127.4C154.243 127.331 154.212 127.264 154.158 127.214C154.105 127.165 154.032 127.136 153.955 127.133L142.458 127.036C142.382 127.036 142.308 127.064 142.254 127.113C142.2 127.162 142.169 127.229 142.169 127.299C142.168 127.334 142.175 127.369 142.189 127.401C142.203 127.434 142.224 127.464 142.251 127.488C142.278 127.513 142.31 127.533 142.346 127.546C142.381 127.56 142.42 127.566 142.458 127.566L153.955 127.663C153.995 127.665 154.034 127.659 154.071 127.647C154.108 127.634 154.141 127.615 154.17 127.591C154.199 127.566 154.222 127.537 154.238 127.504C154.254 127.471 154.262 127.436 154.263 127.4H154.244ZM138.817 143.042C138.84 142.995 140.8 138.081 146.696 136.907C146.772 136.892 146.838 136.85 146.88 136.791C146.922 136.731 146.936 136.659 146.919 136.59C146.9 136.522 146.854 136.463 146.789 136.426C146.723 136.389 146.645 136.376 146.57 136.391C140.353 137.628 138.291 142.818 138.267 142.868C138.243 142.935 138.249 143.008 138.283 143.071C138.317 143.135 138.376 143.183 138.449 143.207H138.542C138.604 143.212 138.666 143.199 138.719 143.169C138.772 143.139 138.813 143.095 138.835 143.042H138.817Z" fill="#475FCB"/>
<path opacity="0.2" d="M154.058 101.099L152.926 83.9704L154.058 101.099ZM150.477 106.751L143.324 92.0201L150.477 106.751ZM168.936 102.468L151.795 104.705L168.936 102.468ZM146.77 114.69L137.49 103.857L146.77 114.69ZM148.4 111.369L161.187 111.954L148.4 111.369ZM145.373 119.677L155.152 120.558L145.373 119.677ZM143.012 124.956L138.156 118.308L143.012 124.956ZM142.454 127.303L153.951 127.4L142.454 127.303ZM140.125 146.927C140.202 146.922 140.274 146.889 140.324 146.836C140.375 146.783 140.4 146.713 140.395 146.643C139.664 136.653 143.911 120.291 150.724 106.861C155.078 98.2776 172.144 81.4073 172.326 81.2378C172.38 81.1877 172.411 81.1199 172.411 81.0493C172.411 80.9786 172.38 80.9108 172.326 80.8607C172.299 80.8361 172.267 80.8166 172.232 80.8033C172.196 80.79 172.159 80.7831 172.121 80.7831C172.083 80.7831 172.045 80.79 172.01 80.8033C171.974 80.8166 171.943 80.8361 171.916 80.8607C171.743 81.0302 154.607 97.9641 150.216 106.624C143.278 120.38 139.087 136.446 139.832 146.677C139.838 146.745 139.871 146.808 139.925 146.854C139.98 146.9 140.051 146.926 140.125 146.927ZM154.053 101.362C154.13 101.358 154.202 101.326 154.254 101.273C154.305 101.221 154.332 101.152 154.328 101.082L153.215 83.945C153.213 83.9101 153.204 83.8759 153.187 83.8444C153.171 83.8128 153.148 83.7846 153.119 83.7613C153.09 83.738 153.057 83.7202 153.021 83.7088C152.984 83.6974 152.946 83.6928 152.908 83.695C152.831 83.6994 152.759 83.7312 152.707 83.7835C152.656 83.8359 152.629 83.9046 152.633 83.9747L153.764 101.103C153.768 101.171 153.8 101.234 153.854 101.281C153.907 101.328 153.979 101.353 154.053 101.353V101.362ZM150.579 106.992C150.649 106.964 150.704 106.911 150.732 106.846C150.759 106.781 150.758 106.709 150.728 106.645L143.571 91.9142C143.54 91.8501 143.483 91.7998 143.411 91.7744C143.339 91.749 143.26 91.7505 143.189 91.7786C143.119 91.8067 143.064 91.8591 143.036 91.9242C143.008 91.9894 143.009 92.0619 143.04 92.126L150.193 106.857C150.215 106.904 150.252 106.944 150.299 106.973C150.346 107.002 150.402 107.017 150.458 107.018C150.506 107.02 150.554 107.011 150.598 106.992H150.579ZM151.818 104.959L168.95 102.73C168.991 102.73 169.032 102.721 169.069 102.705C169.106 102.689 169.14 102.665 169.166 102.637C169.193 102.608 169.213 102.575 169.225 102.539C169.237 102.502 169.24 102.465 169.234 102.427C169.228 102.39 169.214 102.354 169.192 102.322C169.17 102.29 169.141 102.263 169.107 102.242C169.073 102.221 169.034 102.207 168.993 102.2C168.952 102.194 168.91 102.196 168.87 102.205L151.739 104.433C151.662 104.438 151.591 104.47 151.54 104.522C151.489 104.575 151.464 104.643 151.469 104.713C151.474 104.783 151.509 104.848 151.566 104.894C151.624 104.94 151.699 104.963 151.776 104.959H151.818ZM146.933 114.902C146.994 114.859 147.034 114.795 147.043 114.725C147.053 114.656 147.032 114.585 146.984 114.529L137.699 103.675C137.652 103.619 137.581 103.582 137.504 103.573C137.427 103.564 137.349 103.583 137.287 103.626C137.225 103.67 137.185 103.733 137.175 103.804C137.165 103.874 137.186 103.945 137.234 104.001L146.537 114.873C146.564 114.904 146.599 114.93 146.639 114.947C146.678 114.965 146.722 114.974 146.766 114.974C146.835 114.971 146.901 114.946 146.952 114.902H146.933ZM161.443 111.966C161.446 111.896 161.418 111.828 161.365 111.776C161.313 111.725 161.241 111.694 161.164 111.691L148.4 111.102C148.328 111.106 148.261 111.135 148.211 111.181C148.16 111.228 148.131 111.29 148.127 111.355C148.124 111.421 148.147 111.485 148.192 111.536C148.237 111.587 148.301 111.621 148.372 111.632L161.159 112.22C161.236 112.223 161.311 112.197 161.368 112.15C161.424 112.102 161.458 112.036 161.462 111.966H161.443ZM155.422 120.584C155.427 120.549 155.423 120.513 155.413 120.48C155.402 120.446 155.384 120.415 155.36 120.387C155.335 120.36 155.305 120.338 155.271 120.321C155.237 120.305 155.2 120.294 155.161 120.291L145.383 119.414C145.345 119.411 145.306 119.414 145.27 119.424C145.233 119.434 145.199 119.451 145.17 119.473C145.14 119.495 145.116 119.522 145.098 119.553C145.08 119.583 145.069 119.617 145.066 119.652C145.059 119.721 145.083 119.79 145.132 119.844C145.18 119.898 145.25 119.932 145.327 119.94L155.105 120.821H155.133C155.209 120.826 155.283 120.803 155.34 120.759C155.398 120.715 155.434 120.652 155.441 120.584H155.422ZM143.152 125.176C143.217 125.137 143.262 125.077 143.278 125.008C143.293 124.938 143.278 124.867 143.236 124.808L138.402 118.16C138.358 118.103 138.291 118.063 138.216 118.05C138.14 118.037 138.062 118.05 137.997 118.088C137.933 118.127 137.887 118.188 137.872 118.257C137.856 118.326 137.871 118.398 137.913 118.457L142.747 125.104C142.775 125.14 142.811 125.17 142.854 125.191C142.897 125.211 142.945 125.222 142.994 125.223C143.057 125.226 143.119 125.209 143.171 125.176H143.152ZM154.244 127.4C154.243 127.331 154.212 127.264 154.158 127.214C154.105 127.165 154.032 127.136 153.955 127.133L142.458 127.036C142.382 127.036 142.308 127.064 142.254 127.113C142.2 127.162 142.169 127.229 142.169 127.299C142.168 127.334 142.175 127.369 142.189 127.401C142.203 127.434 142.224 127.464 142.251 127.488C142.278 127.513 142.31 127.533 142.346 127.546C142.381 127.56 142.42 127.566 142.458 127.566L153.955 127.663C153.995 127.665 154.034 127.659 154.071 127.647C154.108 127.634 154.141 127.615 154.17 127.591C154.199 127.566 154.222 127.537 154.238 127.504C154.254 127.471 154.262 127.436 154.263 127.4H154.244ZM138.817 143.042C138.84 142.995 140.8 138.081 146.696 136.907C146.772 136.892 146.838 136.85 146.88 136.791C146.922 136.731 146.936 136.659 146.919 136.59C146.9 136.522 146.854 136.463 146.789 136.426C146.723 136.389 146.645 136.376 146.57 136.391C140.353 137.628 138.291 142.818 138.267 142.868C138.243 142.935 138.249 143.008 138.283 143.071C138.317 143.135 138.376 143.183 138.449 143.207H138.542C138.604 143.212 138.666 143.199 138.719 143.169C138.772 143.139 138.813 143.095 138.835 143.042H138.817ZM140.125 146.927C140.202 146.922 140.274 146.889 140.324 146.836C140.375 146.783 140.4 146.713 140.395 146.643C139.664 136.653 143.911 120.291 150.724 106.861C155.078 98.2776 172.144 81.4073 172.326 81.2378C172.38 81.1877 172.411 81.1199 172.411 81.0493C172.411 80.9786 172.38 80.9108 172.326 80.8607C172.299 80.8361 172.267 80.8166 172.232 80.8033C172.196 80.79 172.159 80.7831 172.121 80.7831C172.083 80.7831 172.045 80.79 172.01 80.8033C171.974 80.8166 171.943 80.8361 171.916 80.8607C171.743 81.0302 154.607 97.9641 150.216 106.624C143.278 120.38 139.087 136.446 139.832 146.677C139.838 146.745 139.871 146.808 139.925 146.854C139.98 146.9 140.051 146.926 140.125 146.927ZM154.053 101.362C154.13 101.358 154.202 101.326 154.254 101.273C154.305 101.221 154.332 101.152 154.328 101.082L153.215 83.945C153.213 83.9101 153.204 83.8759 153.187 83.8444C153.171 83.8128 153.148 83.7846 153.119 83.7613C153.09 83.738 153.057 83.7202 153.021 83.7088C152.984 83.6974 152.946 83.6928 152.908 83.695C152.831 83.6994 152.759 83.7312 152.707 83.7835C152.656 83.8359 152.629 83.9046 152.633 83.9747L153.764 101.103C153.768 101.171 153.8 101.234 153.854 101.281C153.907 101.328 153.979 101.353 154.053 101.353V101.362ZM150.579 106.992C150.649 106.964 150.704 106.911 150.732 106.846C150.759 106.781 150.758 106.709 150.728 106.645L143.571 91.9142C143.54 91.8501 143.483 91.7998 143.411 91.7744C143.339 91.749 143.26 91.7505 143.189 91.7786C143.119 91.8067 143.064 91.8591 143.036 91.9242C143.008 91.9894 143.009 92.0619 143.04 92.126L150.193 106.857C150.215 106.904 150.252 106.944 150.299 106.973C150.346 107.002 150.402 107.017 150.458 107.018C150.506 107.02 150.554 107.011 150.598 106.992H150.579ZM151.818 104.959L168.95 102.73C168.991 102.73 169.032 102.721 169.069 102.705C169.106 102.689 169.14 102.665 169.166 102.637C169.193 102.608 169.213 102.575 169.225 102.539C169.237 102.502 169.24 102.465 169.234 102.427C169.228 102.39 169.214 102.354 169.192 102.322C169.17 102.29 169.141 102.263 169.107 102.242C169.073 102.221 169.034 102.207 168.993 102.2C168.952 102.194 168.91 102.196 168.87 102.205L151.739 104.433C151.662 104.438 151.591 104.47 151.54 104.522C151.489 104.575 151.464 104.643 151.469 104.713C151.474 104.783 151.509 104.848 151.566 104.894C151.624 104.94 151.699 104.963 151.776 104.959H151.818ZM146.933 114.902C146.994 114.859 147.034 114.795 147.043 114.725C147.053 114.656 147.032 114.585 146.984 114.529L137.699 103.675C137.676 103.647 137.646 103.624 137.613 103.606C137.579 103.589 137.542 103.578 137.504 103.573C137.466 103.569 137.427 103.571 137.39 103.58C137.353 103.589 137.318 103.605 137.287 103.626C137.256 103.648 137.231 103.674 137.212 103.705C137.192 103.735 137.18 103.769 137.175 103.804C137.17 103.839 137.173 103.874 137.183 103.908C137.193 103.942 137.21 103.974 137.234 104.001L146.537 114.873C146.564 114.904 146.599 114.93 146.639 114.947C146.678 114.965 146.722 114.974 146.766 114.974C146.835 114.971 146.901 114.946 146.952 114.902H146.933ZM161.443 111.966C161.446 111.896 161.418 111.828 161.365 111.776C161.313 111.725 161.241 111.694 161.164 111.691L148.4 111.102C148.328 111.106 148.261 111.135 148.211 111.181C148.16 111.228 148.131 111.29 148.127 111.355C148.124 111.421 148.147 111.485 148.192 111.536C148.237 111.587 148.301 111.621 148.372 111.632L161.159 112.22C161.236 112.223 161.311 112.197 161.368 112.15C161.424 112.102 161.458 112.036 161.462 111.966H161.443ZM155.422 120.584C155.427 120.549 155.423 120.513 155.413 120.48C155.402 120.446 155.384 120.415 155.36 120.387C155.335 120.36 155.305 120.338 155.271 120.321C155.237 120.305 155.2 120.294 155.161 120.291L145.383 119.414C145.345 119.411 145.306 119.414 145.27 119.424C145.233 119.434 145.199 119.451 145.17 119.473C145.14 119.495 145.116 119.522 145.098 119.553C145.08 119.583 145.069 119.617 145.066 119.652C145.059 119.721 145.083 119.79 145.132 119.844C145.18 119.898 145.25 119.932 145.327 119.94L155.105 120.821H155.133C155.209 120.826 155.283 120.803 155.34 120.759C155.398 120.715 155.434 120.652 155.441 120.584H155.422ZM143.152 125.176C143.217 125.137 143.262 125.077 143.278 125.008C143.293 124.938 143.278 124.867 143.236 124.808L138.402 118.16C138.358 118.103 138.291 118.063 138.216 118.05C138.14 118.037 138.062 118.05 137.997 118.088C137.933 118.127 137.887 118.188 137.872 118.257C137.856 118.326 137.871 118.398 137.913 118.457L142.747 125.104C142.775 125.14 142.811 125.17 142.854 125.191C142.897 125.211 142.945 125.222 142.994 125.223C143.057 125.226 143.119 125.209 143.171 125.176H143.152ZM154.244 127.4C154.243 127.331 154.212 127.264 154.158 127.214C154.105 127.165 154.032 127.136 153.955 127.133L142.458 127.036C142.382 127.036 142.308 127.064 142.254 127.113C142.2 127.162 142.169 127.229 142.169 127.299C142.168 127.334 142.175 127.369 142.189 127.401C142.203 127.434 142.224 127.464 142.251 127.488C142.278 127.513 142.31 127.533 142.346 127.546C142.381 127.56 142.42 127.566 142.458 127.566L153.955 127.663C153.995 127.665 154.034 127.659 154.071 127.647C154.108 127.634 154.141 127.615 154.17 127.591C154.199 127.566 154.222 127.537 154.238 127.504C154.254 127.471 154.262 127.436 154.263 127.4H154.244ZM138.817 143.042C138.84 142.995 140.8 138.081 146.696 136.907C146.772 136.892 146.838 136.85 146.88 136.791C146.922 136.731 146.936 136.659 146.919 136.59C146.9 136.522 146.854 136.463 146.789 136.426C146.723 136.389 146.645 136.376 146.57 136.391C140.353 137.628 138.291 142.818 138.267 142.868C138.243 142.935 138.249 143.008 138.283 143.071C138.317 143.135 138.376 143.183 138.449 143.207H138.542C138.604 143.212 138.666 143.199 138.719 143.169C138.772 143.139 138.813 143.095 138.835 143.042H138.817Z" fill="black"/>
<path d="M147.73 139.458H134.547V141.941H135.697L138.076 155.485H144.2L146.579 141.941H147.73V139.458Z" fill="#475FCB"/>
<path opacity="0.3" d="M147.73 139.458H134.547V141.941H135.697L138.076 155.485H144.2L146.579 141.941H147.73V139.458Z" fill="white"/>
<path d="M36.2017 82.9502L17.0877 77.2731L15.3869 73.1856L11.5038 73.0747L4.45715 71.8601L5.3046 73.1856L14.1738 79.0423L16.3621 80.0351L36.3526 89.5357L36.2017 82.9502Z" fill="white" stroke="#263238" stroke-width="1.00396" stroke-miterlimit="10"/>
<path d="M15.3869 73.1856L13.5643 72.1928L9.92493 73.4074L10.5286 74.0676L15.3869 73.1856Z" fill="white" stroke="#263238" stroke-width="1.00396" stroke-linejoin="round"/>
<path d="M36.2017 82.9502L17.0877 77.2731L15.3869 73.1856L11.5038 73.0747L4.45715 71.8601L5.3046 73.1856L14.1738 79.0423L16.3621 80.0351L36.3526 89.5357L36.2017 82.9502Z" fill="white"/>
<path opacity="0.5" d="M36.2017 82.9502L17.0877 77.2731L15.3869 73.1856L11.5038 73.0747L4.45715 71.8601L5.3046 73.1856L14.1738 79.0423L16.3621 80.0351L36.3526 89.5357L36.2017 82.9502Z" fill="#475FCB" stroke="#263238" stroke-width="1.00396" stroke-miterlimit="10"/>
<path d="M36.2017 82.9502L17.0877 77.2731L15.3869 73.1856L11.5038 73.0747L4.45715 71.8601L5.3046 73.1856L14.1738 79.0423L16.3621 80.0351L36.3526 89.5357L36.2017 82.9502Z" stroke="#263238" stroke-width="1.00396" stroke-miterlimit="10"/>
<path d="M15.3869 73.1856L13.5643 72.1928L9.92493 73.4074L10.5286 74.0676L15.3869 73.1856Z" fill="white"/>
<path opacity="0.5" d="M15.3869 73.1856L13.5643 72.1928L9.92493 73.4074L10.5286 74.0676L15.3869 73.1856Z" fill="#475FCB" stroke="#263238" stroke-width="1.00396" stroke-linejoin="round"/>
<path d="M15.3869 73.1856L13.5643 72.1928L9.92493 73.4074L10.5286 74.0676L15.3869 73.1856Z" stroke="#263238" stroke-width="1.00396" stroke-linejoin="round"/>
<path d="M40.2589 46.1045C40.2589 46.1045 39.9629 48.481 40.7001 50.0072C41.4372 51.5334 45.5294 56.7035 45.5294 56.7035L37.8907 62.275C37.8907 62.275 34.7215 56.4659 34.1178 55.5258C33.5142 54.5858 32.7886 50.5406 34.7563 47.6413C36.724 44.742 39.5566 43.9604 40.2589 46.1045Z" fill="white"/>
<g style="mix-blend-mode:multiply" opacity="0.5">
<path d="M36.3352 53.7408L39.6495 59.9936L37.885 62.2802L34.5532 56.8672L36.3352 53.7408Z" fill="#475FCB"/>
</g>
<path d="M40.2589 46.1045C40.2589 46.1045 39.9629 48.481 40.7001 50.0072C41.4372 51.5334 45.5294 56.7035 45.5294 56.7035L37.8907 62.275C37.8907 62.275 34.7215 56.4659 34.1178 55.5258C33.5142 54.5858 32.7886 50.5406 34.7563 47.6413C36.724 44.742 39.5566 43.9604 40.2589 46.1045Z" stroke="#263238" stroke-width="1.00396" stroke-miterlimit="10"/>
<path d="M42.6272 41.7531C42.157 39.1125 38.8311 33.7418 33.5548 33.9477C30.1302 34.085 28.5281 34.7135 27.0422 35.4792C25.831 36.1285 24.702 36.8971 23.6756 37.7712C21.0984 40.5859 20.1929 41.357 20.6921 43.5116C20.6512 44.371 20.7992 45.2292 21.1275 46.0359C21.9169 47.953 22.4567 49.2046 23.1416 50.1182C22.9327 51.0107 22.387 53.366 22.358 53.9047C22.329 54.4433 24.0993 54.0684 24.9932 53.8624C26.6533 57.2423 29.6948 59.587 30.641 59.8564C32.2894 60.3264 34.8956 57.8601 36.2771 55.9484C37.6586 54.0367 36.6138 51.8873 36.6196 51.0318C36.6254 50.1763 39.7249 48.2962 40.8742 47.6995C42.0235 47.1027 43.0915 44.3883 42.6272 41.7531Z" fill="white"/>
<g style="mix-blend-mode:multiply" opacity="0.5">
<path d="M20.7154 43.5116C20.6745 44.3711 20.8225 45.2293 21.1507 46.036C21.9401 47.953 22.48 49.2046 23.1649 50.1182C22.9559 51.0107 22.4103 53.366 22.3813 53.9047C22.3523 54.4433 24.1226 54.0684 25.0165 53.8624C26.6766 57.2423 29.7181 59.587 30.6642 59.8564C32.3127 60.3264 34.9189 57.8602 36.3004 55.9484C36.6455 55.4711 36.8696 54.93 36.9563 54.3641C36.8808 54.1159 36.8286 53.9628 36.8286 53.9628C36.8286 53.9628 36.0508 56.6825 34.5068 56.3287C32.9628 55.9748 30.6004 53.1601 29.2828 52.1883C27.9652 51.2166 28.505 49.9386 28.2438 48.4916C27.9826 47.0446 24.082 45.7719 23.8208 44.9428C23.5596 44.1137 24.4709 40.681 24.4709 40.681C24.4709 40.681 25.951 38.8855 25.6318 39.6248C25.4061 40.2659 25.3243 40.9417 25.3911 41.612C25.4579 42.2824 25.672 42.9338 26.0207 43.5275C26.2654 43.9959 26.6535 44.3902 27.1385 44.6628C27.6234 44.9354 28.1846 45.0748 28.7546 45.0643L30.1709 38.6795L27.1816 36.4298L23.6989 37.7501C21.0985 40.586 20.2104 41.357 20.7154 43.5116Z" fill="#475FCB"/>
</g>
<path d="M42.6272 41.7531C42.157 39.1125 38.8311 33.7418 33.5548 33.9477C30.1302 34.085 28.5281 34.7135 27.0422 35.4792C25.831 36.1285 24.702 36.8971 23.6756 37.7712C21.0984 40.5859 20.1929 41.357 20.6921 43.5116C20.6512 44.371 20.7992 45.2292 21.1275 46.0359C21.9169 47.953 22.4567 49.2046 23.1416 50.1182C22.9327 51.0107 22.387 53.366 22.358 53.9047C22.329 54.4433 24.0993 54.0684 24.9932 53.8624C26.6533 57.2423 29.6948 59.587 30.641 59.8564C32.2894 60.3264 34.8956 57.8601 36.2771 55.9484C37.6586 54.0367 36.6138 51.8873 36.6196 51.0318C36.6254 50.1763 39.7249 48.2962 40.8742 47.6995C42.0235 47.1027 43.0915 44.3883 42.6272 41.7531Z" stroke="#263238" stroke-miterlimit="10"/>
<path d="M23.8615 48.5232L24.4419 50.0336C24.4419 50.0336 25.6899 50.4085 27.2106 48.8981" stroke="#263238" stroke-miterlimit="10" stroke-linecap="round"/>
<path d="M28.1509 55.5787C28.1509 55.5787 29.5323 55.4519 30.0896 53.6881" stroke="#263238" stroke-miterlimit="10" stroke-linecap="round"/>
<path d="M22.8921 47.2611C22.8921 47.2611 23.3042 46.1257 25.7943 46.1257" stroke="#263238" stroke-miterlimit="10" stroke-linecap="round"/>
<path d="M35.656 31.8458C33.8466 31.6091 32.022 31.4821 30.1941 31.4656C30.1941 31.4656 24.7263 28.598 19.4732 31.6557C14.2202 34.7134 16.7451 40.0684 16.7451 41.4045C16.7451 42.7406 15.0618 42.7459 16.1124 44.4675C17.163 46.1891 20.7154 45.2385 20.7154 45.2385C20.7529 44.5891 20.9415 43.9545 21.2687 43.3764C21.5959 42.7983 22.0542 42.29 22.6134 41.885C24.5057 40.5489 26.0148 40.2585 26.6417 40.644C26.6417 40.644 26.2238 43.5116 26.8507 44.6576C26.8507 44.6576 28.9519 45.6134 29.5846 45.6134C30.2173 45.6134 29.1725 46.4214 31.2679 47.1397C31.6496 47.2644 32.058 47.3069 32.4608 47.2638C32.8637 47.2208 33.2501 47.0933 33.5897 46.8914C33.8973 45.7296 34.5706 43.9816 35.8244 44.3882C37.6644 44.985 39.3419 49.1042 36.8518 50.5089C39.8469 51.0053 43.4746 46.1838 43.6894 41.79C43.9042 37.3962 38.7672 32.3423 35.656 31.8458Z" fill="#263238"/>
<path d="M26.7346 38.7587C26.7346 38.7587 28.2786 38.0035 30.1709 39.6195C32.0631 41.2355 35.7431 43.3954 40.6189 42.2072" stroke="white" stroke-width="0.5" stroke-linecap="round" stroke-linejoin="round"/>
<path d="M26.5199 37.4648C26.5199 37.4648 27.5821 35.9545 29.3583 35.9545C31.1344 35.9545 35.2846 38.22 38.599 38.22" stroke="white" stroke-width="0.5" stroke-linecap="round" stroke-linejoin="round"/>
<path d="M25.3124 40.3747C25.3124 40.3747 23.2983 38.1144 21.406 39.947C19.5138 41.7795 20.7153 43.5116 20.7153 43.5116" stroke="white" stroke-width="0.5" stroke-linecap="round" stroke-linejoin="round"/>
<path d="M17.2617 41.885C18.4159 40.938 19.1334 39.6286 19.2701 38.22C19.508 35.8488 23.0662 33.7998 25.3125 35.7432" stroke="white" stroke-width="0.5" stroke-linecap="round" stroke-linejoin="round"/>
<path d="M20.9302 33.2612C20.9302 33.2612 24.4883 30.1348 27.4486 34.122" stroke="white" stroke-width="0.5" stroke-linecap="round" stroke-linejoin="round"/>
<path d="M49.8887 186.975C49.8887 186.975 52.0769 190.07 51.8331 192.061L51.5952 194.052C51.5952 194.052 43.5676 196.053 41.8669 196.053C40.1662 196.053 31.1635 195.277 31.1635 195.277L30.7746 193.872C30.7474 193.769 30.7602 193.66 30.8109 193.563C30.8617 193.467 30.9472 193.39 31.0532 193.344L39.0808 189.938L41.6115 187.419L49.8887 186.975Z" fill="white" stroke="#263238" stroke-width="1.00396" stroke-miterlimit="10"/>
<path d="M43.0857 194.496C45.2624 194.649 49.3952 193.44 51.7924 192.669L51.6241 194.052C51.6241 194.052 43.5675 196.054 41.8668 196.054C40.1661 196.054 31.1634 195.277 31.1634 195.277L30.8848 194.274C32.3243 194.279 40.2067 194.295 43.0857 194.496Z" fill="#475FCB" stroke="#263238" stroke-width="1.00396" stroke-miterlimit="10"/>
<path d="M39.0923 189.938L27.408 194.564C27.408 194.564 26.4096 196.841 27.408 197.295C28.4063 197.749 50.173 197.295 50.173 197.295C50.173 197.295 51.6764 193.698 49.3024 191.285C46.9283 188.871 39.0923 189.938 39.0923 189.938Z" fill="white" stroke="#263238" stroke-width="1.00396" stroke-miterlimit="10"/>
<path d="M50.173 197.295C50.173 197.295 28.4062 197.749 27.4079 197.295C26.9261 197.073 26.9087 196.434 27.019 195.827H50.5561C50.4791 196.326 50.3509 196.817 50.173 197.295Z" fill="#475FCB" stroke="#263238" stroke-width="1.00396" stroke-miterlimit="10"/>
<path d="M33.5664 109.556C33.5664 109.556 30.5133 121.866 29.3582 129.566C28.2031 137.265 27.524 152.691 27.7678 154.46C28.0116 156.23 40.1661 185.872 40.1661 185.872L41.3792 188.512L49.8885 186.965C49.8885 186.965 45.9996 175.685 44.5426 169.49C43.0857 163.296 39.8991 153.119 39.8991 151.35C39.8991 149.581 47.4449 115.793 47.9847 113.575C48.5245 111.357 50.974 107.951 50.974 107.951L34.6809 107.65L33.5664 109.556Z" fill="#475FCB" stroke="#263238" stroke-width="1.00396" stroke-miterlimit="10"/>
<path d="M33.5665 109.556C33.5665 109.556 31.7787 120.799 32.5159 128.615C33.253 136.431 34.8377 153.071 34.8377 155.548C34.8377 158.025 39.2316 172.817 39.4812 177.464C39.8701 184.177 39.3245 187.498 39.3245 187.498L39.0633 189.933C39.0633 189.933 44.1886 190.598 45.3089 190.889C46.6028 191.192 47.9381 191.324 49.2733 191.28C49.2733 191.28 51.1366 183.818 51.1366 177.459C51.1366 171.101 49.5868 158.014 48.8148 152.712C48.0428 147.41 50.4749 126.957 51.8563 123.139C53.2378 119.321 56.2561 111.235 54.2245 107.106C52.193 102.976 33.5665 109.556 33.5665 109.556Z" fill="#475FCB" stroke="#263238" stroke-width="1.00396" stroke-miterlimit="10"/>
<path d="M56.4825 105.035L56.2968 110.063C56.2968 110.063 52.9882 110.66 48.5304 111.362C44.8504 111.943 35.6097 111.209 32.4985 110.934C32.215 110.911 31.9529 110.788 31.7691 110.59C31.5854 110.392 31.495 110.136 31.5176 109.878L31.8194 105.336L56.4825 105.035Z" fill="#263238"/>
<path d="M43.5501 54.9185C43.5501 54.9185 38.3261 60.057 36.3584 63.252C34.3907 66.447 33.6129 71.3425 32.8757 75.1976C32.1385 79.0528 34.1353 88.1044 33.5722 92.2606L31.7903 105.352C31.7903 105.352 31.4072 106.239 32.69 107.211C33.9727 108.183 40.2357 108.537 45.8951 108.795C47.9615 108.89 54.1316 107.681 55.1416 107.623C56.3605 107.554 56.4012 106.144 56.4534 105.035C56.6972 99.823 57.7304 85.9286 58.4095 79.8766C59.8084 67.5349 52.1523 55.6209 43.5501 54.9185Z" fill="white" stroke="#263238" stroke-width="1.00396" stroke-miterlimit="10"/>
<g style="mix-blend-mode:multiply">
<path d="M57.771 86.895C58.0032 84.1542 58.2354 81.6668 58.4386 79.8766C58.4966 79.3485 58.5314 78.8204 58.5604 78.2923L44.682 80.4047L32.7596 76.7079C32.7609 78.9524 32.9005 81.1951 33.1776 83.4254L44.8735 86.4039L57.771 86.895Z" fill="#475FCB"/>
</g>
<g style="mix-blend-mode:multiply">
<path d="M43.0335 55.4361C42.2441 56.2335 40.6769 57.8548 39.1852 59.5764L47.9963 67.725L50.8986 66.6688L43.0335 55.4361Z" fill="#475FCB"/>
</g>
<path d="M43.5501 54.9185C43.5501 54.9185 38.3261 60.057 36.3584 63.252C35.7749 64.223 35.3023 65.2458 34.9479 66.3044L45.4539 55.2618C44.8333 55.0907 44.1956 54.9758 43.5501 54.9185Z" fill="#263238"/>
<g style="mix-blend-mode:multiply">
<path d="M33.2821 73.1169L44.682 76.5285L58.5257 75.0815C58.3087 71.9439 57.5425 68.8579 56.2561 65.94L45.0942 70.0117L35.1163 65.8978C34.3004 68.2574 33.6872 70.671 33.2821 73.1169Z" fill="#475FCB"/>
</g>
<g style="mix-blend-mode:multiply">
<path d="M52.9069 99.823C47.1249 100.706 41.1922 100.265 35.6445 98.5397L32.8641 97.6736L31.9993 104.011L35.1685 104.819C41.1934 106.351 47.4903 106.793 53.7021 106.118L56.2619 105.838C56.3951 105.581 56.4701 105.303 56.4825 105.02C56.5521 103.609 56.674 101.56 56.8307 99.2104L52.9069 99.823Z" fill="#EC8932"/>
</g>
<g style="mix-blend-mode:multiply">
<path d="M54.4567 91.1939C48.6745 92.0806 42.7403 91.6376 37.1943 89.9053L33.6536 88.8016C33.7414 89.9522 33.7239 91.1074 33.6013 92.2554L33.1892 95.3025L36.7183 96.2003C42.7408 97.7345 49.0359 98.1777 55.2461 97.5047L56.9875 97.3146C57.1326 95.2022 57.3009 92.9524 57.4809 90.7291L54.4567 91.1939Z" fill="#475FCB"/>
</g>
<path d="M1.29337e-05 68.8615L11.2231 77.0714L11.7069 76.524L0.483747 68.3141L1.29337e-05 68.8615Z" fill="#263238"/>
<path d="M48.9541 60.6168C48.9541 60.6168 53.0695 63.1675 53.1623 69.1931C53.203 71.8336 52.9011 74.2999 52.2336 78.625C51.5661 82.9502 47.4217 97.0346 44.1944 98.7457C40.9672 100.457 35.9579 97.2247 35.9579 97.2247L11.7301 82.5911L5.87342 78.287L2.97119 73.3018L3.88249 71.7175L11.0278 76.7027L7.17942 73.4655L7.934 72.5941L9.32707 73.476L13.3902 74.8597L14.2783 80.1407L15.532 80.9223L38.7092 88.6273C38.7092 88.6273 38.419 77.2784 38.6338 75.1079C38.8485 72.9374 39.1446 67.4821 41.6985 63.5266" fill="white"/>
<g style="mix-blend-mode:multiply" opacity="0.5">
<path d="M38.5467 80.0509C38.5467 83.9694 38.6918 88.6273 38.6918 88.6273L15.5378 80.954L14.284 80.1724L13.3959 74.8914L9.33283 73.5077L7.94556 72.61L7.19098 73.4813L11.0277 76.7027L3.88244 71.7175L3.01758 73.2754L5.91981 78.2606L11.7765 82.5911L13.2508 83.4836L45.2624 92.8679L38.5467 80.0509Z" fill="#475FCB"/>
</g>
<path d="M48.9541 60.6168C48.9541 60.6168 53.0695 63.1675 53.1623 69.1931C53.203 71.8336 52.9011 74.2999 52.2336 78.625C51.5661 82.9502 47.4217 97.0346 44.1944 98.7457C40.9672 100.457 35.9579 97.2247 35.9579 97.2247L11.7301 82.5911L5.87342 78.287L2.97119 73.3018L3.88249 71.7174L11.0278 76.7027L7.17942 73.4655L7.934 72.5941L9.32707 73.476L13.3902 74.8597L14.2783 80.1407L15.532 80.9223L38.7092 88.6273C38.7092 88.6273 38.419 77.2784 38.6338 75.1079C38.8485 72.9374 39.1446 67.4821 41.6985 63.5266" stroke="#263238" stroke-width="1.00396" stroke-miterlimit="10"/>
<path d="M38.7092 88.6273L47.5552 94.4364L49.8479 90.7397C49.8479 90.7397 51.4326 89.6043 51.6647 88.7487C51.8969 87.8932 51.6009 86.5043 51.8389 85.6488C52.0768 84.7933 53.261 83.9906 53.3712 81.9204C53.4815 79.8502 53.3712 78.1234 53.3712 78.1234C53.3712 78.1234 55.2867 70.957 55.0777 67.8412C54.8688 64.7254 51.5661 59.2173 48.9192 59.0959C46.2724 58.9744 42.8303 59.3388 40.1603 63.0144C37.4902 66.69 38.0359 77.421 37.6179 78.0917C37.2 78.7624 37.7805 82.0735 37.7805 82.0735C37.5485 82.231 37.356 82.4315 37.2159 82.6619C37.0758 82.8923 36.9912 83.1472 36.9678 83.4096C36.9214 84.2704 37.943 86.3881 37.943 86.3881L38.7092 88.6273Z" fill="white" stroke="#263238" stroke-width="1.00396" stroke-miterlimit="10"/>
<g style="mix-blend-mode:multiply">
<path d="M37.8501 75.3349C37.8683 76.2565 37.7925 77.1775 37.6237 78.0863C37.2522 78.6884 37.6759 81.4081 37.7688 81.9626C42.7443 83.3686 48.0054 83.7297 53.1564 83.0188C53.2671 82.6515 53.3333 82.2743 53.3538 81.8939C53.4699 79.8291 53.3538 78.0969 53.3538 78.0969C53.3538 78.0969 53.5221 77.4579 53.7543 76.4862C48.4197 76.7947 43.064 76.407 37.8501 75.3349Z" fill="#EC8932"/>
</g>
<g style="mix-blend-mode:multiply">
<path d="M39.8004 63.6006C38.9704 65.1162 38.506 67.3924 38.239 69.7002C43.5084 71.5298 49.1896 72.1589 54.7875 71.5327C55.0109 70.3113 55.11 69.0739 55.0835 67.836C54.983 66.8575 54.7289 65.8971 54.329 64.9842C49.4411 65.088 44.5587 64.623 39.8004 63.6006Z" fill="#EC8932"/>
</g>
<path d="M37.943 86.4462L38.6918 88.6273L47.5378 94.4364L49.8305 90.7397C49.8305 90.7397 51.4151 89.6043 51.6473 88.7487C51.6887 88.6 51.714 88.4479 51.7228 88.2946C47.0612 88.2213 42.4295 87.6001 37.943 86.4462Z" fill="#263238"/>
<path d="M44.3454 190.82C44.3454 190.82 44.5427 186.247 45.5062 179.561C46.4698 172.875 44.1538 163.38 43.7649 161.796C43.376 160.211 43.9623 156.694 43.5734 155.459C43.1845 154.223 41.3038 148.952 42.4125 142.837C43.5211 136.722 44.4208 120.556 44.4208 120.556C44.4208 120.556 41.6289 118.491 40.8104 115.803C39.992 113.115 40.6189 112.27 40.6189 112.27" stroke="#263238" stroke-width="1.00396" stroke-miterlimit="10"/>
<path d="M45.6397 112.518L44.5659 117.926" stroke="#263238" stroke-width="1.00396" stroke-miterlimit="10"/>
</svg>
