<svg width="30" height="30" viewBox="0 0 30 30" fill="none" xmlns="http://www.w3.org/2000/svg">
<path d="M5.00001 20H25V6.25H5.00001V20ZM16.25 22.5V25H21.25V27.5H8.75001V25H13.75V22.5H3.74001C3.57586 22.499 3.41353 22.4657 3.2623 22.4018C3.11108 22.338 2.97394 22.2449 2.85874 22.128C2.74355 22.0111 2.65257 21.8725 2.59101 21.7204C2.52945 21.5682 2.49852 21.4054 2.50001 21.2413V5.00875C2.50001 4.31375 3.06876 3.75 3.74001 3.75H26.26C26.945 3.75 27.5 4.31125 27.5 5.00875V21.2413C27.5 21.9363 26.9313 22.5 26.26 22.5H16.25V22.5Z" fill="#4D5060"/>
</svg>
