<svg width="24" height="26" viewBox="0 0 24 26" fill="none" xmlns="http://www.w3.org/2000/svg">
<path d="M1 20.5H7.875V22.0625C7.875 22.9742 7.51284 23.8485 6.86818 24.4932C6.22352 25.1378 5.34918 25.5 4.4375 25.5C3.52582 25.5 2.65148 25.1378 2.00682 24.4932C1.36216 23.8485 1 22.9742 1 22.0625V20.5ZM6.0725 15.5L6.12875 15.335C7.0875 12.7025 7.25 12.2125 7.25 11.75C7.25 10.8125 6.99625 9.69626 6.59 8.90876C6.2875 8.32126 6.075 8.15001 6 8.15001C4.4 8.15001 2.875 9.85501 2.875 11.75C2.875 12.9488 2.96875 13.9663 3.15875 15.1975L3.20625 15.5H6.0725ZM6 5.65001C8.5 5.65001 9.75 9.25001 9.75 11.75C9.75 13 9.125 14.25 8.5 16.125L7.875 18H1C1 16.75 0.375 14.875 0.375 11.75C0.375 8.62501 2.8725 5.65001 6 5.65001ZM21.0675 15.6225L20.7962 17.1613C20.6379 18.0592 20.1294 18.8574 19.3826 19.3804C18.6357 19.9034 17.7117 20.1083 16.8137 19.95C15.9158 19.7917 15.1176 19.2832 14.5946 18.5363C14.0716 17.7895 13.8667 16.8654 14.025 15.9675L14.2975 14.43L21.0675 15.6225ZM19.755 10.315C19.9613 9.69001 20.1312 9.19626 20.1337 9.19001C20.3862 8.36751 20.585 7.56126 20.74 6.68001C21.0688 4.81501 19.8625 2.87126 18.2875 2.59251C18.2138 2.58001 17.975 2.71126 17.575 3.23626C17.0375 3.94251 16.595 4.99876 16.4312 5.92001C16.3587 6.33251 16.37 6.42626 16.7687 8.74876C16.825 9.06876 16.8713 9.35626 16.9138 9.64501L16.9387 9.81751L19.7562 10.315H19.755ZM18.7225 0.131257C21.8025 0.673757 23.745 4.03626 23.2025 7.11376C22.66 10.1925 21.7188 11.93 21.5025 13.1613L14.7312 11.9675L14.4412 10.0125C14.1512 8.05751 13.7538 6.71751 13.97 5.48751C14.4038 3.02501 16.26 -0.302493 18.7225 0.131257Z" fill="#4D5060"/>
</svg>
