<svg width="24" height="28" viewBox="0 0 24 28" fill="none" xmlns="http://www.w3.org/2000/svg">
<path d="M12 0.25L23.875 7.125V20.875L12 27.75L0.125 20.875V7.125L12 0.25ZM12 3.13875L2.625 8.56625V19.4338L12 24.8612L21.375 19.4338V8.56625L12 3.13875ZM12 19C10.6739 19 9.40215 18.4732 8.46447 17.5355C7.52678 16.5979 7 15.3261 7 14C7 12.6739 7.52678 11.4021 8.46447 10.4645C9.40215 9.52678 10.6739 9 12 9C13.3261 9 14.5979 9.52678 15.5355 10.4645C16.4732 11.4021 17 12.6739 17 14C17 15.3261 16.4732 16.5979 15.5355 17.5355C14.5979 18.4732 13.3261 19 12 19ZM12 16.5C12.663 16.5 13.2989 16.2366 13.7678 15.7678C14.2366 15.2989 14.5 14.663 14.5 14C14.5 13.337 14.2366 12.7011 13.7678 12.2322C13.2989 11.7634 12.663 11.5 12 11.5C11.337 11.5 10.7011 11.7634 10.2322 12.2322C9.76339 12.7011 9.5 13.337 9.5 14C9.5 14.663 9.76339 15.2989 10.2322 15.7678C10.7011 16.2366 11.337 16.5 12 16.5Z" fill="#4D5060"/>
</svg>
