<svg width="28" height="26" viewBox="0 0 28 26" fill="none" xmlns="http://www.w3.org/2000/svg">
<path d="M17.1437 4.25L20.4012 0.99125C20.5173 0.875029 20.6552 0.78283 20.8069 0.719925C20.9587 0.65702 21.1213 0.624641 21.2856 0.624641C21.4499 0.624641 21.6125 0.65702 21.7643 0.719925C21.916 0.78283 22.0539 0.875029 22.17 0.99125L27.4725 6.295C27.7068 6.52941 27.8385 6.84729 27.8385 7.17875C27.8385 7.5102 27.7068 7.82809 27.4725 8.0625L22.75 12.785V24.25C22.75 24.5815 22.6183 24.8995 22.3839 25.1339C22.1494 25.3683 21.8315 25.5 21.5 25.5H6.49998C6.16846 25.5 5.85052 25.3683 5.6161 25.1339C5.38168 24.8995 5.24998 24.5815 5.24998 24.25V12.785L0.527482 8.0625C0.293143 7.82809 0.161499 7.5102 0.161499 7.17875C0.161499 6.84729 0.293143 6.52941 0.527482 6.295L5.82998 0.99125C5.94607 0.875029 6.08393 0.78283 6.23568 0.719925C6.38743 0.65702 6.55009 0.624641 6.71436 0.624641C6.87863 0.624641 7.04129 0.65702 7.19303 0.719925C7.34478 0.78283 7.48264 0.875029 7.59873 0.99125L10.8562 4.25H17.1437ZM18.1787 6.75H9.82123L6.71498 3.64375L3.17873 7.17875L7.74998 11.75V23H20.25V11.75L24.8212 7.17875L21.285 3.64375L18.1787 6.75Z" fill="#4D5060"/>
</svg>
