<svg width="23" height="23" viewBox="0 0 23 23" fill="none" xmlns="http://www.w3.org/2000/svg">
<path d="M3.66247 1.08876C4.49627 0.791236 5.40071 0.753667 6.2563 0.981012C7.1119 1.20836 7.8784 1.68992 8.45454 2.36208C9.03067 3.03424 9.38934 3.86537 9.48315 4.74567C9.57697 5.62597 9.40151 6.51402 8.97997 7.29251L22.3662 20.68L20.5987 22.4475L7.21122 9.06001C6.43257 9.47989 5.54496 9.65399 4.66539 9.55938C3.78581 9.46477 2.95554 9.10589 2.28399 8.53002C1.61243 7.95415 1.13112 7.18833 0.903467 6.33347C0.675816 5.47861 0.712513 4.57484 1.00872 3.74126L3.80497 6.53751C3.97794 6.71659 4.18483 6.85943 4.41359 6.9577C4.64235 7.05596 4.88838 7.10769 5.13735 7.10985C5.38631 7.11201 5.63321 7.06457 5.86364 6.9703C6.09407 6.87602 6.30341 6.7368 6.47946 6.56075C6.65551 6.3847 6.79474 6.17535 6.88901 5.94492C6.98329 5.71449 7.03073 5.46759 7.02857 5.21863C7.0264 4.96967 6.97468 4.72363 6.87641 4.49487C6.77815 4.26612 6.6353 4.05922 6.45622 3.88626L3.66122 1.08751L3.66247 1.08876ZM16.6212 3.44376L20.5987 1.23376L22.3662 3.00126L20.1562 6.97876L17.9462 7.42126L15.2962 10.0725L13.5275 8.30501L16.1787 5.65376L16.6212 3.44376ZM8.22372 13.6088L9.99122 15.3763L3.36247 22.005C3.1371 22.231 2.8338 22.3623 2.51476 22.3718C2.19572 22.3814 1.88512 22.2685 1.64662 22.0564C1.40812 21.8443 1.2598 21.5489 1.23207 21.231C1.20434 20.913 1.2993 20.5965 1.49747 20.3463L1.59497 20.2375L8.22372 13.6088Z" fill="#4D5060"/>
</svg>
