<svg width="26" height="24" viewBox="0 0 26 24" fill="none" xmlns="http://www.w3.org/2000/svg">
<path d="M18 13.25V3.25H5.5V13.25C5.5 13.913 5.76339 14.5489 6.23223 15.0178C6.70107 15.4866 7.33696 15.75 8 15.75H15.5C16.163 15.75 16.7989 15.4866 17.2678 15.0178C17.7366 14.5489 18 13.913 18 13.25ZM4.25 0.75H23C23.663 0.75 24.2989 1.01339 24.7678 1.48223C25.2366 1.95107 25.5 2.58696 25.5 3.25V7C25.5 7.66304 25.2366 8.29893 24.7678 8.76777C24.2989 9.23661 23.663 9.5 23 9.5H20.5V13.25C20.5 14.5761 19.9732 15.8479 19.0355 16.7855C18.0979 17.7232 16.8261 18.25 15.5 18.25H8C6.67392 18.25 5.40215 17.7232 4.46447 16.7855C3.52678 15.8479 3 14.5761 3 13.25V2C3 1.66848 3.1317 1.35054 3.36612 1.11612C3.60054 0.881696 3.91848 0.75 4.25 0.75ZM20.5 3.25V7H23V3.25H20.5ZM0.5 20.75H23V23.25H0.5V20.75Z" fill="#4D5060"/>
</svg>
