<svg width="26" height="20" viewBox="0 0 26 20" fill="none" xmlns="http://www.w3.org/2000/svg">
<path d="M25.5 8.75V20H23V16.25H3V20H0.5V0H3V12.5H13V3.75H20.5C21.8261 3.75 23.0979 4.27678 24.0355 5.21447C24.9732 6.15215 25.5 7.42392 25.5 8.75ZM23 12.5V8.75C23 8.08696 22.7366 7.45107 22.2678 6.98223C21.7989 6.51339 21.163 6.25 20.5 6.25H15.5V12.5H23ZM8 8.75C8.33152 8.75 8.64946 8.6183 8.88388 8.38388C9.1183 8.14946 9.25 7.83152 9.25 7.5C9.25 7.16848 9.1183 6.85054 8.88388 6.61612C8.64946 6.3817 8.33152 6.25 8 6.25C7.66848 6.25 7.35054 6.3817 7.11612 6.61612C6.8817 6.85054 6.75 7.16848 6.75 7.5C6.75 7.83152 6.8817 8.14946 7.11612 8.38388C7.35054 8.6183 7.66848 8.75 8 8.75ZM8 11.25C7.00544 11.25 6.05161 10.8549 5.34835 10.1517C4.64509 9.44839 4.25 8.49456 4.25 7.5C4.25 6.50544 4.64509 5.55161 5.34835 4.84835C6.05161 4.14509 7.00544 3.75 8 3.75C8.99456 3.75 9.94839 4.14509 10.6517 4.84835C11.3549 5.55161 11.75 6.50544 11.75 7.5C11.75 8.49456 11.3549 9.44839 10.6517 10.1517C9.94839 10.8549 8.99456 11.25 8 11.25Z" fill="#4D5060"/>
</svg>
